<?xml version="1.0" standalone="no"?>
<!DOCTYPE svg PUBLIC "-//W3C//DTD SVG 20010904//EN"
 "http://www.w3.org/TR/2001/REC-SVG-20010904/DTD/svg10.dtd">
<svg version="1.0" xmlns="http://www.w3.org/2000/svg"
 width="310.000000pt" height="310.000000pt" viewBox="0 0 310.000000 310.000000"
 preserveAspectRatio="xMidYMid meet">
<metadata>
Created by potrace 1.11, written by Peter Selinger 2001-2013
</metadata>
<g transform="translate(0.000000,310.000000) scale(0.100000,-0.100000)"
fill="#000000" stroke="none">
<path d="M979 2731 l-122 -121 243 0 c225 0 241 1 229 17 -19 22 -191 194
-212 211 -15 12 -31 0 -138 -107z"/>
<path d="M708 2443 c-25 -27 -116 -117 -202 -200 l-157 -153 753 0 753 0 -202
200 -201 200 -349 0 -350 0 -45 -47z"/>
<path d="M250 1565 l0 -405 405 0 405 0 0 405 0 405 -405 0 -405 0 0 -405z"/>
<path d="M1170 1565 l0 -405 405 0 405 0 0 405 0 405 -405 0 -405 0 0 -405z"/>
<path d="M2100 1025 l0 -785 375 0 375 0 0 410 0 410 -181 183 c-99 100 -185
181 -190 179 -5 -1 -8 2 -7 7 3 8 -359 381 -369 381 -1 0 -3 -353 -3 -785z"/>
<path d="M250 645 l0 -405 865 0 865 0 0 405 0 405 -865 0 -865 0 0 -405z"/>
</g>
</svg>
