<?xml version="1.0" encoding="utf-8"?>
<!-- Generator: Adobe Illustrator 19.1.0, SVG Export Plug-In . SVG Version: 6.00 Build 0)  -->
<svg version="1.1" id="Layer_1" xmlns="http://www.w3.org/2000/svg" xmlns:xlink="http://www.w3.org/1999/xlink" x="0px" y="0px"
	 viewBox="-327.2 228.9 336 336" style="enable-background:new -327.2 228.9 336 336;" xml:space="preserve">
<style type="text/css">
	.st0{fill:#FFFFFF;}
	.st1{fill:#231F20;}
	.st2{fill:none;}
	.st3{fill:#29ABE2;}
</style>
<g>
	<path class="st0" d="M-197.5,434.2c-20.2-8.3-34.5-28.2-34.5-51.4v-77.6c0-8.4,6.9-15.3,15.3-15.3c8.4,0,15.3,6.9,15.3,15.3v28
		c7.7-3.9,16.2-5.9,24.9-5.9c21.6,0,40.3,12.2,49.4,30.3l0,0l0,0c23.4,6.6,40.6,28.1,40.6,53.5c0,30.6-24.9,55.5-55.5,55.5
		c-8.7,0-17.2-2.1-24.9-5.9v28c0,8.4-6.9,15.3-15.3,15.3c-8.4,0-15.3-6.9-15.3-15.3V434.2 M-196.1,398.3c4-16.8,15.5-30.6,30.9-37.7
		l0,0c-3.4-1.7-7.2-2.7-11.3-2.7c-13.8,0-25,11.2-25,25C-201.4,388.7-199.4,394-196.1,398.3 M-166.4,405.7
		c7.2-3.2,12.6-9.7,14.4-17.5l0,0C-159.3,391.3-164.7,397.8-166.4,405.7 M-153.3,433.3c3.4,1.7,7.2,2.7,11.3,2.7
		c13.8,0,25-11.2,25-25c0-5.8-2-11.2-5.4-15.5l0,0l0,0C-126.3,412.3-137.9,426.2-153.3,433.3z"/>
	<path class="st1" d="M-159.7,428.6c18.8-6.8,32.3-24.6,32.5-45.7c0-0.2,0-0.4,0-0.7c0-7.1-1.5-13.8-4.2-19.9
		c-7.7-17.3-24.9-29.3-45.1-29.3c-11.8,0-22.7,4.2-31.2,11.1v-39.5c0-5-4-9-9-9s-9,4-9,9v77.6c0,19.7,11.5,36.6,28.2,44.5v-15.8
		c0-1.9,0.1-3.7,0.3-5.5c-6.4-5.7-10.5-14-10.5-23.3c0-17.3,14-31.2,31.2-31.2c9.7,0,18.3,4.4,24,11.3c3.9,4.7,6.5,10.6,7.1,17.1
		c0.1,0.9,0.1,1.9,0.1,2.9c0,13.9-9.1,25.7-21.7,29.8C-166.7,418.5-164,424.3-159.7,428.6z"/>
	<line class="st2" x1="-151.6" y1="380.7" x2="-151.6" y2="380.7"/>
	<path class="st3" d="M-124,364.6c18.3,7.2,31.3,25,31.3,45.9c0,27.2-22.1,49.3-49.3,49.3c-11.8,0-22.7-4.2-31.2-11.1v39.5
		c0,5-4,9-9,9s-9-4-9-9v-77.6c0-0.2,0-0.4,0-0.7c0-2.2,0.2-4.4,0.5-6.5c2.5-18,14.7-32.7,31.1-39l0,0c0.1,0.1,0.1,0.1,0.2,0.2
		c0.3,0.3,0.7,0.6,1,1c0.1,0.1,0.2,0.2,0.3,0.3c0.5,0.6,1,1.2,1.5,1.8c0.2,0.2,0.4,0.5,0.5,0.7c0.2,0.3,0.4,0.6,0.6,0.9
		c0.2,0.3,0.4,0.7,0.6,1c0.2,0.3,0.3,0.6,0.5,0.9c0.3,0.5,0.5,1.1,0.8,1.6c0.1,0.2,0.2,0.5,0.3,0.7c0.2,0.5,0.4,0.9,0.5,1.4
		c0.1,0.2,0.1,0.4,0.2,0.6c0.2,0.7,0.4,1.4,0.5,2.1c0,0,0.1,0.3,0.1,0.5c0.1,0.6,0.2,1.2,0.3,1.8c0,0.2,0.1,0.8,0.1,0.8
		c-11.7,3.8-20.4,14.2-21.5,26.9c-0.1,0.9-0.1,1.9-0.1,2.9s0.1,1.9,0.1,2.9c0.6,6.5,3.1,12.4,7.1,17.1c1.7,2.1,3.8,3.9,6,5.5
		c5.1,3.6,11.3,5.8,18.1,5.8c17.3,0,31.2-14,31.2-31.2c0-9.2-4-17.5-10.4-23.2c0,0,0-0.4,0-0.6c0-0.2,0-0.5,0.1-0.7
		c0.1-1,0.1-2.1,0.1-3.1c0-1.1,0-2.1-0.1-3.2c0-0.3,0-0.6-0.1-0.9c-0.1-0.7-0.1-1.5-0.2-2.2c0-0.3-0.1-0.7-0.1-1
		c-0.1-0.7-0.2-1.4-0.3-2.1c-0.1-0.3-0.1-0.6-0.2-0.9c-0.2-0.8-0.3-1.6-0.5-2.4c0-0.2-0.1-0.4-0.1-0.6
		C-123,367.8-123.5,366.2-124,364.6L-124,364.6z"/>
</g>
</svg>
