<?xml version="1.0" encoding="utf-8"?>
<!-- Generator: Adobe Illustrator 19.1.0, SVG Export Plug-In . SVG Version: 6.00 Build 0)  -->
<svg version="1.1" id="Layer_1" xmlns="http://www.w3.org/2000/svg" xmlns:xlink="http://www.w3.org/1999/xlink" x="0px" y="0px"
	 width="79px" height="64.5px" viewBox="0 0 79 64.5" style="enable-background:new 0 0 79 64.5;" xml:space="preserve">
<style type="text/css">
	.st0{fill:none;stroke:#818181;stroke-width:3;stroke-linejoin:round;stroke-miterlimit:10;}
</style>
<path class="st0" d="M48.9,1.5H7.7c-3.6,0-6.2,3.1-6.2,6.7V36c0,3.6,2.6,6.5,6.2,6.5h2L9.6,53l15.1-10.5h24.1c3.6,0,6.6-2.9,6.6-6.5
	V8.2C55.5,4.6,52.5,1.5,48.9,1.5z"/>
<path class="st0" d="M23.5,18.2V46c0,3.6,3.2,6.5,6.8,6.5h24.1L69.6,63l-0.1-10.5h2c3.6,0,6-2.9,6-6.5V18.2c0-3.6-2.4-6.7-6-6.7
	H30.3C26.7,11.5,23.5,14.6,23.5,18.2z"/>
</svg>
