<?xml version="1.0" encoding="utf-8"?>
<!-- Generator: Adobe Illustrator 19.1.0, SVG Export Plug-In . SVG Version: 6.00 Build 0)  -->
<svg version="1.1" id="Layer_1" xmlns="http://www.w3.org/2000/svg" xmlns:xlink="http://www.w3.org/1999/xlink" x="0px" y="0px"
	 viewBox="0 0 304 303" style="enable-background:new 0 0 304 303;" xml:space="preserve">
<style type="text/css">
	.st0{fill:#FFFFFF;}
	.st1{fill-rule:evenodd;clip-rule:evenodd;fill:#183660;}
	.st2{fill-rule:evenodd;clip-rule:evenodd;fill:#B42D2F;}
</style>
<g>
	<path class="st0" d="M239.9,101c2.4,4,4.4,8.6,6.2,13l-45.3,19.4c2.1,5.6,3.3,11.8,3.3,18.2c0,7.1-1.5,13.9-4.1,20.1l45.9,18.4
		c-1.7,4.1-3.7,8-5.9,12h64V101H239.9z"/>
	<path class="st0" d="M52.4,151.6c0-18.4,4.9-35.6,13.5-50.6H0v101h65.8C57.3,187,52.4,169.9,52.4,151.6z"/>
	<path class="st1" d="M240,202c-17.4,30-49.8,50.4-87.1,50.4c-37.3,0-69.7-20.4-87.1-50.4H0v101h304V202H240z"/>
	<path class="st1" d="M0,0v101h66c17.4-30,49.8-50.1,86.9-50.1c37.1,0,69.6,20.1,87,50.1H304V0H0z"/>
	<path class="st2" d="M199.7,171.6c-7.8,18.6-26.2,31.6-47.6,31.6c-28.5,0-51.6-23.1-51.6-51.6s23.1-51.6,51.6-51.6
		c22.2,0,41.1,14,48.4,33.6l45.6-19.4c-14.9-36.8-51-62.8-93.2-62.8c-55.5,0-100.5,45-100.5,100.5c0,55.5,45,100.5,100.5,100.5
		c42,0,78-25.8,93-62.4L199.7,171.6z"/>
</g>
</svg>
