<?xml version="1.0" encoding="utf-8"?>
<!-- Generator: Adobe Illustrator 19.1.0, SVG Export Plug-In . SVG Version: 6.00 Build 0)  -->
<svg version="1.1" id="Layer_1" xmlns="http://www.w3.org/2000/svg" xmlns:xlink="http://www.w3.org/1999/xlink" x="0px" y="0px"
	 viewBox="0 0 306.1 306" style="enable-background:new 0 0 306.1 306;" xml:space="preserve">
<style type="text/css">
	.st0{fill:none;stroke:#FFFFFF;stroke-width:3;stroke-miterlimit:10;}
</style>
<g>
	<path class="st0" d="M67,202.5c-8.5-14-13.4-31.6-13.4-49.9c0-18.4,4.9-35.1,13.6-50.1H1.5l0.3,100H67z"/>
	<path class="st0" d="M154.2,52.3c37.2,0,69.6,20.2,87,50.2h63.6h-0.1V1.5h0.1H1.6v101h65.5C84.6,72.5,117,52.3,154.2,52.3z"/>
	<path class="st0" d="M201,172.4c-6.4,15.4-20.1,26.9-36.8,30.5c-3.5,0.7-7.1,1.2-10.8,1.2c-3.7,0-7.4-0.4-10.9-1.2
		c-23.3-5-40.7-25.7-40.7-50.4c0-24.3,16.8-44.6,39.3-50.1c3.9-1,8-1.5,12.3-1.5c4.3,0,8.5,0.5,12.5,1.5
		c16.6,4.1,30.1,16.3,35.9,32.1l45.6-19.5c-1.8-4.4-3.9-8.6-6.2-12.7c-17.4-30-49.8-50.2-87-50.2c-37.2,0-69.6,20.2-87,50.2
		c-8.6,14.8-13.6,32-13.6,50.4c0,18.3,4.9,35.4,13.4,50.1c17.4,30.1,49.9,50.4,87.2,50.4s69.8-20.3,87.2-50.4
		c2.2-3.8,4.2-7.8,5.9-12L201,172.4z"/>
	<path class="st0" d="M201.4,133.5c2.3,5.9,3.6,12.2,3.6,18.9c0,7.1-1.5,13.9-4.1,20.1c0-0.1,0.1-0.1,0.1-0.2l46.3,18.3
		c-1.7,4.1-3.7,8.8-5.9,11.8h63.3v-100h-63.4c2.4,4,4.5,8.2,6.2,12.6l-45.6,19.4C201.7,134.2,201.5,133.9,201.4,133.5z"/>
	<circle class="st0" cx="153.4" cy="152.4" r="51.6"/>
	<g>
		<path class="st0" d="M241.4,202.5c0,0-0.1,0.2-0.1,0.3c-17.4,30.1-49.9,50.5-87.2,50.5S84.4,232.9,67,202.8c0-0.1-0.1-0.3-0.1-0.3
			H1.6v102h303v-102H241.4z"/>
	</g>
</g>
</svg>
