<?xml version="1.0" encoding="utf-8"?>
<!-- Generator: Adobe Illustrator 19.1.0, SVG Export Plug-In . SVG Version: 6.00 Build 0)  -->
<svg version="1.1" id="Layer_1" xmlns="http://www.w3.org/2000/svg" xmlns:xlink="http://www.w3.org/1999/xlink" x="0px" y="0px"
	 width="122px" height="122px" viewBox="0 0 122 122" style="enable-background:new 0 0 122 122;" xml:space="preserve">
<style type="text/css">
	.st0{fill:#FFD10A;stroke:#FFFFFF;stroke-width:3;stroke-miterlimit:10;}
	.st1{fill:#FFFFFF;}
	.st2{font-family:'MuseoSansRounded-700';}
	.st3{font-size:18px;}
	.st4{letter-spacing:2;}
</style>
<g>
	
		<image style="overflow:visible;opacity:0.75;" width="590" height="590" xlink:href="50980975A0CAAD90.png"  transform="matrix(0.24 0 0 0.24 -9.7691 -9.7691)">
	</image>
	<g>
		<g>
			<circle class="st0" cx="61" cy="61" r="54.3"/>
			<text transform="matrix(1 0 0 1 37.1949 40.3086)"><tspan x="0" y="0" class="st1 st2 st3 st4">our</tspan><tspan x="-9.3" y="21.6" class="st1 st2 st3 st4">work</tspan></text>
			<path class="st1" d="M62,72.4v17.4l6.3-6.2c0.5-0.5,1.2-0.5,1.7,0c0.5,0.5,0.5,1.2,0,1.6l-8.2,8.2c-0.1,0.1-0.1,0.1-0.2,0.1
				c0,0-0.1,0-0.1,0c0,0-0.1,0-0.1,0.1c0,0-0.1,0-0.1,0c0,0-0.1,0-0.1,0c-0.1,0-0.3,0-0.5,0c0,0-0.1,0-0.1,0c0,0-0.1,0-0.1,0
				c0,0-0.1,0-0.1-0.1c0,0-0.1,0-0.1,0c-0.1,0-0.1-0.1-0.2-0.1L52,85.3c-0.2-0.2-0.3-0.5-0.3-0.8c0-0.3,0.1-0.6,0.3-0.8
				c0.5-0.5,1.3-0.5,1.7,0l6.3,6.2V72.4c0-0.6,0.4-1.2,1-1.2S62,71.8,62,72.4z"/>
		</g>
	</g>
</g>
</svg>
