<?xml version="1.0" encoding="utf-8"?>
<!-- Generator: Adobe Illustrator 19.1.0, SVG Export Plug-In . SVG Version: 6.00 Build 0)  -->
<svg version="1.1" id="Layer_1" xmlns="http://www.w3.org/2000/svg" xmlns:xlink="http://www.w3.org/1999/xlink" x="0px" y="0px"
	 viewBox="0 0 312.1 78.5" style="enable-background:new 0 0 312.1 78.5;" xml:space="preserve">
<style type="text/css">
	.st0{fill:#FFFFFF;}
	.st1{fill:#29ABE2;}
	.st2{fill:#F15B2A;}
	.st3{fill:#FFD10A;}
	.st4{fill:#D7DE27;}
	.st5{fill:#231F20;}
	.st6{fill:#90298D;}
	.st7{fill:none;stroke:#C3996B;stroke-width:13;stroke-miterlimit:10;}
</style>
<g>
	<g>
		<path class="st0" d="M162.9,68.3c1.7,0,2.3,1.4,2.3,1.4h0c0,0,0-0.2,0-0.5V66c0-0.2,0.1-0.3,0.3-0.3h0.3c0.2,0,0.3,0.1,0.3,0.3
			v9.1c0,0.2-0.1,0.4-0.3,0.4h-0.2c-0.2,0-0.4-0.1-0.4-0.3v-0.5c0-0.3,0.1-0.4,0.1-0.4h0c0,0-0.6,1.5-2.5,1.5
			c-1.9,0-3.1-1.5-3.1-3.7C159.7,69.8,161,68.3,162.9,68.3z M162.9,74.8c1.2,0,2.3-0.8,2.3-2.8c0-1.4-0.7-2.8-2.2-2.8
			c-1.2,0-2.3,1-2.3,2.8C160.7,73.7,161.6,74.8,162.9,74.8z"/>
		<path class="st0" d="M172.7,68.3c1.9,0,2.9,1.4,2.9,3.4c0,0.2-0.2,0.4-0.4,0.4h-5.1c0,1.8,1.3,2.8,2.7,2.8c0.9,0,1.5-0.4,1.8-0.6
			c0.2-0.1,0.4-0.1,0.5,0.1l0.1,0.2c0.1,0.2,0.1,0.3-0.1,0.5c-0.4,0.3-1.2,0.8-2.4,0.8c-2.1,0-3.7-1.5-3.7-3.7
			C169.2,69.7,170.8,68.3,172.7,68.3z M174.7,71.3c-0.1-1.5-1-2.2-2-2.2c-1.2,0-2.2,0.8-2.4,2.2H174.7z"/>
		<path class="st0" d="M178.3,74.4l0.1-0.1c0.1-0.2,0.3-0.2,0.5-0.1c0.3,0.2,1,0.6,1.9,0.6c0.8,0,1.4-0.4,1.4-1.1
			c0-1.6-3.8-1.1-3.8-3.4c0-1.3,1.1-2,2.4-2c1,0,1.6,0.4,1.9,0.6c0.2,0.1,0.2,0.3,0.1,0.5l-0.1,0.2c-0.1,0.2-0.3,0.2-0.5,0.1
			c-0.3-0.2-0.8-0.4-1.5-0.4s-1.4,0.3-1.4,1.1c0,1.6,3.8,1.1,3.8,3.5c0,1.2-1,2-2.4,2c-1.2,0-2-0.5-2.4-0.8
			C178.2,74.8,178.1,74.6,178.3,74.4z"/>
		<path class="st0" d="M186.1,66.5V66c0-0.2,0.1-0.3,0.3-0.3h0.4c0.2,0,0.3,0.1,0.3,0.3v0.5c0,0.2-0.1,0.3-0.3,0.3h-0.4
			C186.2,66.9,186.1,66.8,186.1,66.5z M186.1,68.8c0-0.2,0.1-0.3,0.3-0.3h0.3c0.2,0,0.3,0.1,0.3,0.3v6.3c0,0.2-0.1,0.4-0.3,0.4h-0.3
			c-0.2,0-0.3-0.1-0.3-0.4V68.8z"/>
		<path class="st0" d="M191.5,77.3c0.3,0.1,0.9,0.4,1.6,0.4c1.3,0,2.4-0.6,2.4-2.2v-0.7c0-0.3,0-0.5,0-0.5h0
			c-0.4,0.8-1.1,1.3-2.2,1.3c-1.9,0-3.1-1.5-3.1-3.7c0-2.1,1.1-3.5,3.1-3.5c1.8,0,2.3,1.3,2.3,1.3h0c0,0,0-0.1,0-0.2v-0.6
			c0-0.2,0.1-0.3,0.3-0.3h0.2c0.2,0,0.4,0.1,0.4,0.3v6.5c0,2.2-1.7,3.1-3.3,3.1c-0.7,0-1.4-0.2-2-0.4c-0.2-0.1-0.3-0.2-0.2-0.4
			l0.1-0.2C191.2,77.2,191.3,77.2,191.5,77.3z M195.6,71.9c0-2.1-1-2.7-2.2-2.7c-1.4,0-2.2,1-2.2,2.6c0,1.8,0.9,2.8,2.3,2.8
			C194.6,74.6,195.6,74,195.6,71.9z"/>
		<path class="st0" d="M200.1,68.8c0-0.2,0.1-0.3,0.3-0.3h0.3c0.2,0,0.3,0.1,0.3,0.3v0.8c0,0.3-0.1,0.5-0.1,0.5h0
			c0.3-0.6,1.2-1.8,2.8-1.8c1.8,0,2.4,1,2.4,2.7v4.1c0,0.2-0.1,0.4-0.4,0.4h-0.3c-0.2,0-0.3-0.1-0.3-0.4v-3.9c0-1.1-0.2-2.1-1.5-2.1
			c-1.5,0-2.7,1.2-2.7,2.9v3.1c0,0.2-0.1,0.4-0.3,0.4h-0.3c-0.2,0-0.3-0.1-0.3-0.4V68.8z"/>
		<path class="st0" d="M213.8,68.9c-0.1-0.2,0-0.4,0.3-0.4h0.3c0.2,0,0.3,0.1,0.4,0.3l1.6,5c0.1,0.3,0.2,0.8,0.2,0.8h0
			c0,0,0.1-0.4,0.2-0.8l1.6-4.9c0.1-0.2,0.2-0.3,0.4-0.3h0.3c0.2,0,0.3,0.1,0.4,0.3l1.6,4.9c0.1,0.3,0.2,0.8,0.2,0.8h0
			c0,0,0.1-0.4,0.2-0.8l1.6-5c0.1-0.2,0.2-0.3,0.4-0.3h0.3c0.3,0,0.4,0.2,0.3,0.4l-2.2,6.4c-0.1,0.2-0.2,0.3-0.4,0.3h-0.4
			c-0.2,0-0.3-0.1-0.4-0.3l-1.6-4.7c-0.1-0.3-0.2-0.8-0.2-0.8h0c0,0-0.1,0.4-0.2,0.8l-1.6,4.7c-0.1,0.2-0.2,0.3-0.4,0.3h-0.4
			c-0.2,0-0.3-0.1-0.4-0.3L213.8,68.9z"/>
		<path class="st0" d="M227.1,66.5V66c0-0.2,0.1-0.3,0.3-0.3h0.4c0.2,0,0.3,0.1,0.3,0.3v0.5c0,0.2-0.1,0.3-0.3,0.3h-0.4
			C227.2,66.9,227.1,66.8,227.1,66.5z M227.1,68.8c0-0.2,0.1-0.3,0.4-0.3h0.3c0.2,0,0.3,0.1,0.3,0.3v6.3c0,0.2-0.1,0.4-0.3,0.4h-0.3
			c-0.2,0-0.4-0.1-0.4-0.4V68.8z"/>
		<path class="st0" d="M231.9,69.3h-0.6c-0.2,0-0.3-0.1-0.3-0.3v-0.1c0-0.2,0.1-0.4,0.3-0.4h0.6v-1.7c0-0.2,0.1-0.3,0.3-0.3h0.3
			c0.2,0,0.3,0.1,0.3,0.3v1.7h1.4c0.2,0,0.3,0.1,0.3,0.4V69c0,0.2-0.1,0.3-0.3,0.3h-1.4v3.5c0,1.6,1,1.8,1.5,1.8
			c0.3,0,0.4,0.1,0.4,0.3v0.2c0,0.2-0.1,0.3-0.4,0.3c-1.5,0-2.5-0.9-2.5-2.6V69.3z"/>
		<path class="st0" d="M237.5,66c0-0.2,0.1-0.3,0.3-0.3h0.3c0.2,0,0.3,0.1,0.3,0.3v3.5c0,0.3-0.1,0.6-0.1,0.6h0
			c0.3-0.7,1.2-1.8,2.8-1.8c1.8,0,2.4,1,2.4,2.7v4.1c0,0.2-0.1,0.4-0.3,0.4H243c-0.2,0-0.4-0.1-0.4-0.4v-3.9c0-1.1-0.2-2.1-1.5-2.1
			c-1.5,0-2.7,1.2-2.7,2.9v3.1c0,0.2-0.1,0.4-0.3,0.4h-0.3c-0.2,0-0.3-0.1-0.3-0.4V66z"/>
		<path class="st0" d="M252,68.8c0-0.2,0.1-0.3,0.3-0.3h0.2c0.2,0,0.3,0.1,0.3,0.3v0.5c0,0.3,0,0.5,0,0.5h0c0,0,0.6-1.5,2.5-1.5
			c1.9,0,3.1,1.5,3.1,3.7c0,2.2-1.3,3.7-3.2,3.7c-1.7,0-2.3-1.4-2.3-1.4h0c0,0,0.1,0.3,0.1,0.6V78c0,0.2-0.1,0.3-0.4,0.3h-0.3
			c-0.2,0-0.3-0.1-0.3-0.3V68.8z M255.2,74.8c1.3,0,2.3-1,2.3-2.8c0-1.7-0.9-2.8-2.2-2.8c-1.2,0-2.3,0.8-2.3,2.8
			C253,73.4,253.7,74.8,255.2,74.8z"/>
		<path class="st0" d="M261.5,68.8c0-0.2,0.1-0.3,0.3-0.3h0.3c0.2,0,0.4,0.1,0.4,0.3v3.9c0,1.1,0.2,2.1,1.5,2.1
			c1.6,0,2.6-1.4,2.6-2.9v-3c0-0.2,0.1-0.3,0.4-0.3h0.3c0.2,0,0.3,0.1,0.3,0.3v6.3c0,0.2-0.1,0.4-0.3,0.4h-0.3
			c-0.2,0-0.3-0.1-0.3-0.4v-0.8c0-0.3,0-0.5,0-0.5h0c-0.3,0.7-1.2,1.8-2.8,1.8c-1.7,0-2.4-0.9-2.4-2.7V68.8z"/>
		<path class="st0" d="M271.1,68.8c0-0.2,0.1-0.3,0.4-0.3h0.3c0.2,0,0.3,0.1,0.3,0.3v1c0,0.3-0.1,0.6-0.1,0.6h0
			c0.3-1,1.1-1.9,2.3-1.9c0.3,0,0.4,0.1,0.4,0.3V69c0,0.2-0.2,0.4-0.4,0.4c-1.5,0-2.2,1.7-2.2,3.2v2.6c0,0.2-0.1,0.4-0.3,0.4h-0.3
			c-0.2,0-0.4-0.1-0.4-0.4V68.8z"/>
		<path class="st0" d="M277.2,68.8c0-0.2,0.1-0.3,0.3-0.3h0.2c0.2,0,0.3,0.1,0.3,0.3v0.5c0,0.3,0,0.5,0,0.5h0c0,0,0.6-1.5,2.5-1.5
			c1.9,0,3.1,1.5,3.1,3.7c0,2.2-1.3,3.7-3.2,3.7c-1.7,0-2.3-1.4-2.3-1.4h0c0,0,0.1,0.3,0.1,0.6V78c0,0.2-0.1,0.3-0.4,0.3h-0.3
			c-0.2,0-0.3-0.1-0.3-0.3V68.8z M280.4,74.8c1.3,0,2.3-1,2.3-2.8c0-1.7-0.9-2.8-2.2-2.8c-1.2,0-2.3,0.8-2.3,2.8
			C278.1,73.4,278.9,74.8,280.4,74.8z"/>
		<path class="st0" d="M290,68.3c2.1,0,3.7,1.6,3.7,3.7c0,2.1-1.7,3.7-3.7,3.7c-2.1,0-3.7-1.6-3.7-3.7
			C286.2,69.9,287.9,68.3,290,68.3z M290,74.8c1.5,0,2.7-1.2,2.7-2.9c0-1.6-1.2-2.8-2.7-2.8c-1.5,0-2.7,1.2-2.7,2.8
			C287.2,73.6,288.5,74.8,290,74.8z"/>
		<path class="st0" d="M296.3,74.4l0.1-0.1c0.1-0.2,0.3-0.2,0.5-0.1c0.3,0.2,1,0.6,1.9,0.6c0.8,0,1.4-0.4,1.4-1.1
			c0-1.6-3.8-1.1-3.8-3.4c0-1.3,1.1-2,2.4-2c1,0,1.6,0.4,1.9,0.6c0.2,0.1,0.2,0.3,0.1,0.5l-0.1,0.2c-0.1,0.2-0.3,0.2-0.5,0.1
			c-0.3-0.2-0.8-0.4-1.5-0.4c-0.7,0-1.4,0.3-1.4,1.1c0,1.6,3.8,1.1,3.8,3.5c0,1.2-1,2-2.4,2c-1.2,0-2-0.5-2.4-0.8
			C296.2,74.8,296.2,74.6,296.3,74.4z"/>
		<path class="st0" d="M307.2,68.3c1.9,0,2.9,1.4,2.9,3.4c0,0.2-0.2,0.4-0.4,0.4h-5.1c0,1.8,1.3,2.8,2.7,2.8c0.9,0,1.5-0.4,1.8-0.6
			c0.2-0.1,0.4-0.1,0.5,0.1l0.1,0.2c0.1,0.2,0.1,0.3-0.1,0.5c-0.4,0.3-1.2,0.8-2.4,0.8c-2.1,0-3.7-1.5-3.7-3.7
			C303.7,69.7,305.3,68.3,307.2,68.3z M309.2,71.3c-0.1-1.5-1-2.2-2-2.2c-1.2,0-2.2,0.8-2.4,2.2H309.2z"/>
	</g>
	<g>
		<polygon class="st1" points="169.8,8 162.1,15.7 189.6,15.7 181.8,8 		"/>
		<polygon class="st2" points="193,47 207,47 207,32.6 193,18.5 193,32.2 		"/>
		<rect x="177" y="17" class="st3" width="14" height="14"/>
		<rect x="161" y="17" class="st4" width="14" height="14"/>
		<polygon class="st5" points="171.5,6 180.1,6 175.8,1.7 		"/>
		<g>
			<defs>
				<rect id="SVGID_3_" x="161" y="17" width="14" height="14"/>
			</defs>
			<clipPath id="SVGID_1_">
				<use xlink:href="#SVGID_3_"  style="overflow:visible;"/>
			</clipPath>
		</g>
		<rect x="161" y="33" class="st6" width="30" height="14"/>
		<path class="st7" d="M175.8,32.5"/>
		<path class="st7" d="M175.8,16.6"/>
		<path class="st7" d="M161.1,16.5"/>
		<path class="st7" d="M190.8,16.5"/>
		<path class="st0" d="M207.7,31.5l-30.8-31c-0.3-0.3-0.7-0.6-1.2-0.6c0,0,0,0,0,0c-0.5,0-0.9,0.3-1.2,0.6l-15,15.1
			c-0.3,0.3-0.5,0.8-0.5,1.3v30.5c0,0.9,0.8,1.6,1.8,1.6h45.9c0.9,0,1.3-0.7,1.3-1.6V32.7C208,32.3,208,31.9,207.7,31.5z M189.6,15
			H162l7.7-7h12L189.6,15z M175,17v14h-14V17H175z M177,17h14v14h-14V17z M175.8,1.7l4.3,4.3h-8.5L175.8,1.7z M161,33h30v14h-30V33z
			 M207,47h-14V18.6l14,14.1V47z"/>
	</g>
	<g>
		<path class="st0" d="M14.7,40c0-0.5-0.1-1-0.3-1.4c-0.2-0.4-0.5-0.8-0.9-1.2c-0.4-0.4-1-0.8-1.7-1.2c-0.7-0.4-1.5-0.8-2.6-1.3
			c-1.3-0.5-2.5-1.1-3.5-1.6c-1-0.5-1.9-1.1-2.6-1.7c-0.7-0.6-1.3-1.4-1.6-2.2c-0.4-0.8-0.6-1.8-0.6-3c0-1.1,0.2-2.2,0.6-3.2
			s1-1.8,1.8-2.6S5,19.4,6.2,19s2.3-0.6,3.7-0.6c1.4,0,2.7,0.2,3.9,0.7c1.1,0.4,2.1,1,2.9,1.8c0.8,0.8,1.4,1.7,1.8,2.8
			c0.4,1.1,0.6,2.4,0.6,3.4h-4.6c0-1-0.1-1.2-0.3-1.7c-0.2-0.6-0.5-1.1-0.9-1.5c-0.4-0.4-0.9-0.8-1.4-1.1s-1.2-0.4-1.9-0.4
			c-0.8,0-1.5,0.1-2,0.3c-0.6,0.2-1,0.5-1.4,0.9c-0.4,0.4-0.6,0.8-0.8,1.2c-0.2,0.5-0.3,1-0.3,1.5c0,0.5,0.1,1,0.2,1.4
			c0.1,0.4,0.4,0.7,0.8,1.1c0.4,0.3,0.9,0.7,1.5,1s1.5,0.7,2.5,1.2c1.4,0.6,2.7,1.1,3.8,1.7c1.1,0.6,2,1.2,2.8,1.9
			c0.8,0.7,1.3,1.4,1.7,2.3c0.4,0.9,0.6,1.9,0.6,3c0,1.2-0.2,2.4-0.7,3.4c-0.4,1-1.1,1.9-1.9,2.6c-0.8,0.7-1.8,1.3-3,1.6
			c-1.2,0.4-2.4,0.6-3.8,0.6c-1.6,0-3-0.3-4.3-0.8c-1.2-0.5-2.3-1.2-3.1-2c-0.8-0.8-1.5-1.7-1.9-2.8C0.2,41.2,0,40,0,39h4.7
			c0,1,0.2,1.7,0.6,2.4C5.6,42,6,42.5,6.5,42.9c0.5,0.4,1.1,0.6,1.7,0.8c0.6,0.2,1.2,0.2,1.8,0.2c1.5,0,2.7-0.4,3.5-1
			C14.3,42.1,14.7,41.2,14.7,40z"/>
		<path class="st0" d="M40.1,47c-0.2,0-0.3-0.6-0.4-1.2c-0.1-0.6-0.2-1.1-0.2-1.7c-0.3,0.5-0.7,1-1.1,1.4c-0.4,0.4-0.9,0.8-1.4,1.2
			c-0.5,0.3-1.1,0.6-1.7,0.8c-0.6,0.2-1.3,0.3-2,0.3c-1.2,0-2.4-0.2-3.4-0.5c-1-0.4-1.9-0.9-2.6-1.6c-0.7-0.7-1.3-1.6-1.7-2.6
			c-0.4-1-0.6-2.2-0.6-3.6s0.2-2.6,0.7-3.8c0.5-1.2,1.2-2.2,2.1-3s2.1-1.5,3.5-2c1.4-0.5,3-0.8,4.9-0.8H39v-3c0-1.7-0.2-2.9-0.9-3.6
			c-0.8-0.7-1.8-1.1-3.4-1.1c-0.8,0-1.4,0.1-2,0.4c-0.6,0.2-1.1,0.6-1.5,1c-0.4,0.4-0.7,1-0.9,1.5S30.1,26,30.1,27h-4.7
			c0-1,0.2-2.2,0.7-3.2c0.4-1,1.1-2,1.9-2.8c0.8-0.8,1.8-1.5,3-2c1.2-0.5,2.5-0.8,4-0.8c1.3,0,2.5,0.2,3.6,0.5
			c1.1,0.3,2,0.8,2.8,1.5c0.8,0.7,1.4,1.6,1.8,2.7c0.4,1.1,0.7,2.5,0.7,4v14c0,0.5,0,1,0.1,1.5c0,0.5,0.1,1,0.2,1.6
			c0.1,0.5,0.2,1,0.3,1.5c0.1,0.5,0.4,0.9,0.4,1.3V47H40.1z M33.9,43.6c0.6,0,1.3-0.1,1.8-0.3c0.6-0.2,1.1-0.4,1.6-0.8
			c0.5-0.3,0.7-0.7,1.1-1.1s0.7-0.8,0.7-1.2V33h-2.1c-1.1,0-2.1,0.4-3,0.6c-0.9,0.2-1.7,0.7-2.3,1.2c-0.6,0.5-1.1,1.1-1.5,1.8
			c-0.3,0.7-0.5,1.5-0.5,2.4c0,0.9,0.1,1.6,0.3,2.2c0.2,0.6,0.4,1.1,0.8,1.4c0.4,0.4,0.8,0.6,1.3,0.8C32.5,43.5,33.1,43.6,33.9,43.6
			z"/>
		<path class="st0" d="M56,47h-4V7h4V47z"/>
		<path class="st0" d="M70,12v7h4v3h-4v18.3c0,0.7-0.1,1.3,0,1.8c0.1,0.4,0.2,0.8,0.5,1c0.2,0.2,0.4,0.4,0.7,0.5
			c0.3,0.1,0.6,0.1,0.9,0.1s0.7,0,1-0.1c0.4-0.1,0.7-0.1,0.8-0.2l-0.1,3.9c-0.3,0.1-0.7,0.2-1.3,0.3c-0.5,0.1-1.2,0.2-2,0.2
			c-0.8,0-1.5-0.1-2.2-0.4c-0.7-0.3-1.3-0.7-1.8-1.3s-0.9-1.4-1.2-2.4c-0.3-1-0.5-2.2-0.5-3.6V22h-4v-3h4v-7H70z"/>
		<path class="st0" d="M100,34.4c0,2.3-0.2,4.2-0.6,5.9c-0.4,1.7-1,3.1-1.8,4.2c-0.8,1.1-1.8,1.9-2.9,2.5s-2.5,0.8-4,0.8
			c-1.6,0-2.9-0.3-4-1c-1.1-0.7-2-1.8-2.7-3.1L83.7,47H79V7h5v15c1-1.2,1.7-2.1,2.8-2.7s2.4-0.9,3.9-0.9c1.5,0,2.9,0.3,4,0.8
			c1.2,0.5,2.2,1.3,3,2.4c0.8,1.1,1.4,2.5,1.8,4.2c0.4,1.7,0.6,3.7,0.6,6.1V34.4z M95,31.8c0-1.6,0.1-3-0.1-4.1
			c-0.2-1.2-0.4-2.1-0.9-2.9c-0.5-0.8-1-1.4-1.8-1.7c-0.8-0.4-1.7-0.6-2.8-0.6c-1.3,0-2.5,0.4-3.3,1.1c-0.9,0.7-1.1,1.7-2.1,2.8
			v13.5c0,0.5,0.6,1.1,0.9,1.5c0.3,0.5,0.8,0.9,1.2,1.2c0.4,0.3,1,0.6,1.5,0.8c0.6,0.2,1.2,0.3,1.9,0.3c2.1,0,3.4-0.7,4.3-2.2
			c0.9-1.5,1.1-3.8,1.1-7V31.8z"/>
		<path class="st0" d="M105,31.8c0-2.2,0.3-4.2,0.9-5.9c0.6-1.7,1.4-3.1,2.4-4.2c1-1.1,2.2-2,3.5-2.5c1.3-0.6,2.8-0.9,4.3-0.9
			c1.5,0,3,0.3,4.3,0.9c1.4,0.6,2.5,1.4,3.5,2.5c1,1.1,1.7,2.5,2.3,4.2c0.6,1.7,0.8,3.6,0.8,5.9v2.7c0,2.2-0.2,4.2-0.8,5.8
			c-0.6,1.7-1.3,3.1-2.3,4.2c-1,1.1-2.1,2-3.5,2.5c-1.3,0.6-2.8,0.8-4.3,0.8s-3-0.3-4.3-0.8c-1.3-0.6-2.5-1.4-3.5-2.5
			c-1-1.1-1.8-2.5-2.4-4.2c-0.6-1.7-0.9-3.6-0.9-5.8V31.8z M110,34.4c0,1.6,0,3,0.3,4.1c0.3,1.2,0.7,2.2,1.3,2.9s1.2,1.4,2,1.8
			c0.8,0.4,1.4,0.6,2.3,0.6c4.2,0,6.1-3.1,6.1-9.4v-2.7c0-1.6,0-2.9-0.3-4.1c-0.3-1.2-0.7-2.2-1.2-2.9c-0.6-0.8-1.2-1.4-2-1.8
			c-0.8-0.4-1.6-0.6-2.5-0.6c-0.9,0-1.7,0.2-2.5,0.6c-0.8,0.4-1.4,1-2,1.8c-0.6,0.8-0.9,1.8-1.2,2.9c-0.3,1.2-0.3,2.5-0.3,4.1V34.4z
			"/>
		<path class="st0" d="M140.8,29.4l4.9-10.4h5.4l-7.7,13.8l7.9,14.2h-5.3l-5-10.7L135.8,47h-5.4l7.9-14.2L130.6,19h5.3L140.8,29.4z"
			/>
		<path class="st0" d="M226.9,42.1c0-0.6-0.1-1.1-0.2-1.6c-0.2-0.5-0.4-0.9-0.8-1.2s-0.9-0.7-1.5-1c-0.6-0.3-1.4-0.6-2.3-0.9
			c-0.9-0.3-1.7-0.6-2.4-1c-0.7-0.4-1.3-0.8-1.8-1.2s-0.9-1-1.2-1.7c-0.3-0.6-0.4-1.4-0.4-2.2c0-0.8,0.2-1.6,0.4-2.3
			c0.3-0.7,0.7-1.3,1.2-1.7c0.5-0.5,1.2-0.9,1.9-1.1c0.7-0.3,1.6-0.4,2.4-0.4c1,0,1.8,0.2,2.6,0.5c0.8,0.3,1.4,0.8,2,1.4
			c0.5,0.6,0.9,1.2,1.2,2c0.3,0.8,0.4,1.5,0.4,2.5h-1.7c0-1-0.1-1.3-0.3-1.9c-0.2-0.6-0.5-1.1-0.9-1.5c-0.4-0.4-0.9-0.8-1.4-1
			c-0.6-0.2-1.2-0.4-1.9-0.4s-1.4,0.1-1.9,0.3c-0.5,0.2-1,0.5-1.4,0.8c-0.4,0.4-0.6,0.8-0.8,1.2c-0.2,0.5-0.3,1-0.3,1.5
			c0,0.5,0.1,1,0.2,1.4s0.4,0.8,0.8,1.2c0.4,0.4,0.9,0.7,1.5,1c0.6,0.3,1.3,0.6,2.2,0.9c1,0.3,1.8,0.7,2.5,1
			c0.7,0.4,1.4,0.8,1.9,1.3c0.5,0.5,0.9,1.1,1.1,1.7c0.3,0.7,0.4,1.4,0.4,2.3c0,0.9-0.2,1.7-0.5,2.3c-0.3,0.7-0.7,1.3-1.3,1.8
			c-0.5,0.5-1.2,0.8-2,1.1c-0.8,0.3-1.6,0.4-2.5,0.4c-0.8,0-1.6-0.1-2.4-0.4c-0.8-0.2-1.5-0.6-2.2-1.1c-0.6-0.5-1.2-1.3-1.6-2.1
			c-0.4-0.8-0.6-2-0.6-3h1.7c0,1,0.2,1.8,0.4,2.4c0.3,0.6,0.7,1.2,1.2,1.5c0.5,0.4,1,0.7,1.6,0.8c0.6,0.2,1.2,0.3,1.8,0.3
			c0.7,0,1.3-0.1,1.9-0.3s1-0.5,1.4-0.8c0.4-0.3,0.7-0.8,0.9-1.3C226.8,43.2,226.9,42.7,226.9,42.1z"/>
		<path class="st0" d="M245,27h-6v20h-2V27h-6v-1h14V27z"/>
		<path class="st0" d="M261,26v15c0,1.2-0.4,2.2-0.8,3.1c-0.3,0.8-0.9,1.5-1.5,2c-0.6,0.5-1.3,0.9-2.1,1.1c-0.8,0.2-1.6,0.4-2.5,0.4
			c-0.9,0-1.8-0.1-2.5-0.4c-0.8-0.2-1.5-0.6-2-1.1c-0.6-0.5-0.9-1.2-1.2-2c-0.3-0.8-0.4-1.9-0.4-3.1V26h1v15c0,0.9,0.4,1.7,0.6,2.4
			c0.2,0.6,0.7,1.2,1.1,1.6c0.4,0.4,1,0.7,1.5,0.9c0.6,0.2,1.2,0.3,1.9,0.3c0.7,0,1.3-0.1,1.9-0.3c0.6-0.2,1.1-0.5,1.5-0.9
			c0.4-0.4,0.8-0.9,1.1-1.6c0.2-0.6,0.4-1.4,0.4-2.4V26H261z"/>
		<path class="st0" d="M265,47V26h5.3c1.1,0,2.2,0.2,3.1,0.5s1.7,0.9,2.4,1.6c0.7,0.7,1.3,1.6,1.6,2.7c0.4,1.1,0.6,2.3,0.6,3.7v4.3
			c0,1.4-0.3,2.6-0.6,3.7c-0.4,1.1-0.9,2-1.6,2.7c-0.7,0.7-1.5,1.1-2.4,1.5c-0.9,0.4-2,0.4-3.2,0.4H265z M267,27v19h3.1
			c1,0,1.8-0.3,2.6-0.6c0.8-0.3,1.4-0.8,1.9-1.4c0.5-0.6,0.8-1.4,1.1-2.2c0.3-0.9,0.3-1.9,0.3-3v-4.3c0-1.1,0-2.1-0.3-3
			c-0.3-0.9-0.6-1.6-1.1-2.2c-0.5-0.6-1.1-1.3-1.8-1.6c-0.7-0.3-1.5-0.7-2.5-0.7H267z"/>
		<path class="st0" d="M284,47h-1V26h1V47z"/>
		<path class="st0" d="M303,39c0,1.4-0.2,2.7-0.5,3.7c-0.3,1.1-0.8,2-1.4,2.7c-0.6,0.7-1.3,1.3-2.2,1.7c-0.9,0.4-1.8,0.6-2.9,0.6
			c-1.1,0-2-0.2-2.9-0.6c-0.9-0.4-1.6-0.9-2.2-1.7c-0.6-0.7-1.1-1.6-1.5-2.7c-0.3-1.1-0.5-2.3-0.5-3.7v-4.6c0-1.4,0.2-2.7,0.5-3.7
			c0.3-1.1,0.8-2,1.4-2.7c0.6-0.7,1.3-1.3,2.2-1.7c0.9-0.4,1.8-0.6,2.9-0.6c1.1,0,2,0.2,2.9,0.6c0.9,0.4,1.6,0.9,2.2,1.7
			c0.6,0.7,1.1,1.6,1.4,2.7c0.3,1.1,0.5,2.3,0.5,3.7V39z M301,34.3c0-2.3-0.3-4.1-1.2-5.3c-0.9-1.2-2.1-1.8-3.8-1.8
			c-1.7,0-2.8,0.6-3.7,1.8c-0.9,1.2-1.2,2.9-1.2,5.3V39c0,2.3,0.4,4.1,1.3,5.3c0.9,1.2,2.2,1.8,3.8,1.8c1.7,0,2.8-0.6,3.7-1.8
			c0.9-1.2,1.2-2.9,1.2-5.3V34.3z"/>
	</g>
</g>
<g>
</g>
<g>
</g>
<g>
</g>
<g>
</g>
<g>
</g>
<g>
</g>
</svg>
