<?xml version="1.0" encoding="utf-8"?>
<!-- Generator: Adobe Illustrator 19.1.0, SVG Export Plug-In . SVG Version: 6.00 Build 0)  -->
<svg version="1.1" id="Layer_1" xmlns="http://www.w3.org/2000/svg" xmlns:xlink="http://www.w3.org/1999/xlink" x="0px" y="0px"
	 viewBox="0 0 336 336" style="enable-background:new 0 0 336 336;" xml:space="preserve">
<style type="text/css">
	.st0{fill:#90298D;}
	.st1{fill:#FFFFFF;}
</style>
<g>
	<rect class="st0" width="336" height="336"/>
	<g>
		<circle class="st1" cx="37.5" cy="11.1" r="3.1"/>
		<circle class="st1" cx="16.2" cy="23.5" r="3.1"/>
		<circle class="st1" cx="30.4" cy="23.5" r="3.1"/>
		<rect x="21" y="23" class="st1" width="5" height="1"/>
		<rect x="42" y="35" class="st1" width="5" height="1"/>
		<rect x="31.3" y="16.7" transform="matrix(0.5 -0.866 0.866 0.5 1.9707 38.0595)" class="st1" width="5.3" height="1.3"/>
		<circle class="st1" cx="37.5" cy="35.8" r="3.1"/>
		<rect x="31.3" y="29" transform="matrix(-0.5 -0.866 0.866 -0.5 25.2518 73.8544)" class="st1" width="5.3" height="1.3"/>
		<circle class="st1" cx="58.9" cy="23.5" r="3.1"/>
		<circle class="st1" cx="73.1" cy="23.5" r="3.1"/>
		<rect x="63" y="23" class="st1" width="6" height="1"/>
		<circle class="st1" cx="51.8" cy="35.8" r="3.1"/>
		<rect x="52.6" y="41.3" transform="matrix(0.5 0.866 -0.866 0.5 64.0266 -26.895)" class="st1" width="5.3" height="1.3"/>
		<circle class="st1" cx="94.4" cy="11.1" r="3.1"/>
		<circle class="st1" cx="122.9" cy="11.1" r="3.1"/>
		<circle class="st1" cx="101.5" cy="23.5" r="3.1"/>
		<circle class="st1" cx="115.8" cy="23.5" r="3.1"/>
		<rect x="106" y="23" class="st1" width="5" height="1"/>
		<rect x="127" y="10" class="st1" width="6" height="2"/>
		<rect x="116.6" y="16.7" transform="matrix(0.5 -0.866 0.866 0.5 44.6587 111.9972)" class="st1" width="5.3" height="1.3"/>
		<rect x="95.3" y="16.7" transform="matrix(0.5 0.866 -0.866 0.5 64.0176 -76.1921)" class="st1" width="5.3" height="1.3"/>
		<circle class="st1" cx="94.4" cy="35.8" r="3.1"/>
		<rect x="95.3" y="29" transform="matrix(-0.5 0.866 -0.866 -0.5 172.6753 -40.3754)" class="st1" width="5.3" height="1.3"/>
		<rect x="95.3" y="41.3" transform="matrix(0.5 0.866 -0.866 0.5 85.3706 -63.8639)" class="st1" width="5.3" height="1.3"/>
		<circle class="st1" cx="137.1" cy="11.1" r="3.1"/>
		<circle class="st1" cx="165.6" cy="11.1" r="3.1"/>
		<circle class="st1" cx="158.4" cy="23.5" r="3.1"/>
		<rect x="170" y="10" class="st1" width="5" height="2"/>
		<rect x="170" y="35" class="st1" width="5" height="1"/>
		<rect x="159.3" y="16.7" transform="matrix(0.5 -0.866 0.866 0.5 66.0027 148.9661)" class="st1" width="5.3" height="1.3"/>
		<circle class="st1" cx="165.6" cy="35.8" r="3.1"/>
		<rect x="159.3" y="29" transform="matrix(-0.5 -0.866 0.866 -0.5 217.3477 184.761)" class="st1" width="5.3" height="1.3"/>
		<rect x="159.3" y="41.3" transform="matrix(0.5 -0.866 0.866 0.5 44.6496 161.2943)" class="st1" width="5.3" height="1.3"/>
		<circle class="st1" cx="179.8" cy="11.1" r="3.1"/>
		<circle class="st1" cx="186.9" cy="23.5" r="3.1"/>
		<circle class="st1" cx="201.1" cy="23.5" r="3.1"/>
		<rect x="213" y="35" class="st1" width="5" height="1"/>
		<rect x="180.7" y="16.7" transform="matrix(0.5 0.866 -0.866 0.5 106.7055 -150.1298)" class="st1" width="5.3" height="1.3"/>
		<circle class="st1" cx="179.8" cy="35.8" r="3.1"/>
		<rect x="180.7" y="29" transform="matrix(-0.5 0.866 -0.866 -0.5 300.7393 -114.3131)" class="st1" width="5.3" height="1.3"/>
		<circle class="st1" cx="208.3" cy="35.8" r="3.1"/>
		<rect x="202" y="29" transform="matrix(-0.5 -0.866 0.866 -0.5 281.3796 221.7299)" class="st1" width="5.3" height="1.3"/>
		<rect x="202" y="41.3" transform="matrix(0.5 -0.866 0.866 0.5 65.9936 198.2631)" class="st1" width="5.3" height="1.3"/>
		<circle class="st1" cx="222.5" cy="11.1" r="3.1"/>
		<circle class="st1" cx="250.9" cy="11.1" r="3.1"/>
		<circle class="st1" cx="229.6" cy="23.5" r="3.1"/>
		<rect x="255" y="10" class="st1" width="6" height="2"/>
		<rect x="223.4" y="16.7" transform="matrix(0.5 0.866 -0.866 0.5 128.0495 -187.0987)" class="st1" width="5.3" height="1.3"/>
		<circle class="st1" cx="222.5" cy="35.8" r="3.1"/>
		<rect x="223.4" y="29" transform="matrix(-0.5 0.866 -0.866 -0.5 364.7712 -151.282)" class="st1" width="5.3" height="1.3"/>
		<rect x="223.4" y="41.3" transform="matrix(0.5 0.866 -0.866 0.5 149.4026 -174.7705)" class="st1" width="5.3" height="1.3"/>
		<circle class="st1" cx="265.2" cy="11.1" r="3.1"/>
		<circle class="st1" cx="293.6" cy="11.1" r="3.1"/>
		<circle class="st1" cx="272.3" cy="23.5" r="3.1"/>
		<circle class="st1" cx="286.5" cy="23.5" r="3.1"/>
		<rect x="298" y="10" class="st1" width="5" height="2"/>
		<rect x="298" y="35" class="st1" width="5" height="1"/>
		<rect x="287.4" y="16.7" transform="matrix(0.5 -0.866 0.866 0.5 130.0346 259.8727)" class="st1" width="5.3" height="1.3"/>
		<rect x="266.1" y="16.7" transform="matrix(0.5 0.866 -0.866 0.5 149.3935 -224.0675)" class="st1" width="5.3" height="1.3"/>
		<circle class="st1" cx="265.2" cy="35.8" r="3.1"/>
		<rect x="266.1" y="29" transform="matrix(-0.5 0.866 -0.866 -0.5 428.8032 -188.2509)" class="st1" width="5.3" height="1.3"/>
		<circle class="st1" cx="293.6" cy="35.8" r="3.1"/>
		<rect x="287.4" y="29" transform="matrix(-0.5 -0.866 0.866 -0.5 409.4435 295.6676)" class="st1" width="5.3" height="1.3"/>
		<rect x="287.4" y="41.3" transform="matrix(0.5 -0.866 0.866 0.5 108.6816 272.2009)" class="st1" width="5.3" height="1.3"/>
		<rect x="266.1" y="41.3" transform="matrix(0.5 0.866 -0.866 0.5 170.7466 -211.7393)" class="st1" width="5.3" height="1.3"/>
		<circle class="st1" cx="307.9" cy="11.1" r="3.1"/>
		<circle class="st1" cx="307.9" cy="35.8" r="3.1"/>
		<circle class="st1" cx="16.2" cy="48.1" r="3.1"/>
		<circle class="st1" cx="9.1" cy="60.5" r="3.1"/>
		<rect x="9.9" y="53.6" transform="matrix(-0.5 0.866 -0.866 -0.5 65.9588 70.5372)" class="st1" width="5.3" height="1.3"/>
		<circle class="st1" cx="37.5" cy="60.5" r="3.1"/>
		<circle class="st1" cx="16.2" cy="72.8" r="3.1"/>
		<rect x="42" y="60" class="st1" width="5" height="1"/>
		<rect x="9.9" y="66" transform="matrix(0.5 0.866 -0.866 0.5 64.0301 22.3988)" class="st1" width="5.3" height="1.3"/>
		<circle class="st1" cx="9.1" cy="85.1" r="3.1"/>
		<rect x="9.9" y="78.3" transform="matrix(-0.5 0.866 -0.866 -0.5 87.3119 107.5217)" class="st1" width="5.3" height="1.3"/>
		<rect x="9.9" y="90.6" transform="matrix(0.5 0.866 -0.866 0.5 85.3831 34.727)" class="st1" width="5.3" height="1.3"/>
		<circle class="st1" cx="58.9" cy="48.1" r="3.1"/>
		<circle class="st1" cx="51.8" cy="60.5" r="3.1"/>
		<rect x="52.6" y="53.6" transform="matrix(-0.5 0.866 -0.866 -0.5 129.9908 33.5683)" class="st1" width="5.3" height="1.3"/>
		<circle class="st1" cx="58.9" cy="72.8" r="3.1"/>
		<circle class="st1" cx="73.1" cy="72.8" r="3.1"/>
		<rect x="52.6" y="66" transform="matrix(0.5 0.866 -0.866 0.5 85.374 -14.5701)" class="st1" width="5.3" height="1.3"/>
		<circle class="st1" cx="51.8" cy="85.1" r="3.1"/>
		<rect x="52.6" y="78.3" transform="matrix(-0.5 0.866 -0.866 -0.5 151.3438 70.5529)" class="st1" width="5.3" height="1.3"/>
		<circle class="st1" cx="80.2" cy="85.1" r="3.1"/>
		<rect x="74" y="78.3" transform="matrix(-0.5 -0.866 0.866 -0.5 46.5833 184.7826)" class="st1" width="5.3" height="1.3"/>
		<rect x="74" y="90.6" transform="matrix(0.5 -0.866 0.866 0.5 -40.7388 112.0097)" class="st1" width="5.3" height="1.3"/>
		<circle class="st1" cx="115.8" cy="48.1" r="3.1"/>
		<circle class="st1" cx="101.6" cy="48.1" r="3.1"/>
		<circle class="st1" cx="122.9" cy="60.5" r="3.1"/>
		<rect x="116.6" y="53.6" transform="matrix(-0.5 -0.866 0.866 -0.5 131.9683 184.7669)" class="st1" width="5.3" height="1.3"/>
		<circle class="st1" cx="115.8" cy="72.8" r="3.1"/>
		<rect x="127" y="60" class="st1" width="6" height="1"/>
		<rect x="127" y="84" class="st1" width="6" height="2"/>
		<circle class="st1" cx="122.9" cy="85.1" r="3.1"/>
		<rect x="116.6" y="78.3" transform="matrix(-0.5 -0.866 0.866 -0.5 110.6152 221.7515)" class="st1" width="5.3" height="1.3"/>
		<circle class="st1" cx="158.5" cy="48.1" r="3.1"/>
		<circle class="st1" cx="144.2" cy="48.1" r="3.1"/>
		<rect x="149" y="47" class="st1" width="5" height="2"/>
		<circle class="st1" cx="137.1" cy="60.5" r="3.1"/>
		<circle class="st1" cx="144.2" cy="72.8" r="3.1"/>
		<circle class="st1" cx="158.4" cy="72.8" r="3.1"/>
		<rect x="149" y="72" class="st1" width="5" height="1"/>
		<rect x="138" y="66" transform="matrix(0.5 0.866 -0.866 0.5 128.062 -88.5078)" class="st1" width="5.3" height="1.3"/>
		<circle class="st1" cx="137.1" cy="85.1" r="3.1"/>
		<rect x="138" y="90.6" transform="matrix(0.5 0.866 -0.866 0.5 149.4151 -76.1796)" class="st1" width="5.3" height="1.3"/>
		<circle class="st1" cx="201.1" cy="48.1" r="3.1"/>
		<circle class="st1" cx="186.9" cy="48.1" r="3.1"/>
		<rect x="191" y="47" class="st1" width="6" height="2"/>
		<circle class="st1" cx="179.8" cy="60.5" r="3.1"/>
		<rect x="180.7" y="53.6" transform="matrix(-0.5 0.866 -0.866 -0.5 322.0867 -77.3383)" class="st1" width="5.3" height="1.3"/>
		<circle class="st1" cx="208.3" cy="60.5" r="3.1"/>
		<rect x="202" y="53.6" transform="matrix(-0.5 -0.866 0.866 -0.5 260.0322 258.7047)" class="st1" width="5.3" height="1.3"/>
		<circle class="st1" cx="186.9" cy="72.8" r="3.1"/>
		<circle class="st1" cx="201.1" cy="72.8" r="3.1"/>
		<rect x="191" y="72" class="st1" width="6" height="1"/>
		<rect x="213" y="60" class="st1" width="5" height="1"/>
		<rect x="213" y="84" class="st1" width="5" height="2"/>
		<rect x="202" y="66" transform="matrix(0.5 -0.866 0.866 0.5 44.6462 210.5881)" class="st1" width="5.3" height="1.3"/>
		<rect x="180.7" y="66" transform="matrix(0.5 0.866 -0.866 0.5 149.406 -125.4767)" class="st1" width="5.3" height="1.3"/>
		<circle class="st1" cx="307.9" cy="85.1" r="3.1"/>
		<rect x="202" y="78.3" transform="matrix(-0.5 -0.866 0.866 -0.5 238.6792 295.6892)" class="st1" width="5.3" height="1.3"/>
		<rect x="330.1" y="66" transform="matrix(0.5 -0.866 0.866 0.5 108.6664 321.5015)" class="st1" width="5.3" height="1.3"/>
		<rect x="308.8" y="66" transform="matrix(0.5 0.866 -0.866 0.5 213.4497 -236.3765)" class="st1" width="5.3" height="1.3"/>
		<circle class="st1" cx="229.6" cy="48.1" r="3.1"/>
		<circle class="st1" cx="222.5" cy="60.5" r="3.1"/>
		<circle class="st1" cx="208.3" cy="85.1" r="3.1"/>
		<rect x="223.4" y="53.6" transform="matrix(-0.5 0.866 -0.866 -0.5 386.1186 -114.3072)" class="st1" width="5.3" height="1.3"/>
		<circle class="st1" cx="250.9" cy="60.5" r="3.1"/>
		<circle class="st1" cx="229.6" cy="72.8" r="3.1"/>
		<circle class="st1" cx="243.8" cy="72.8" r="3.1"/>
		<rect x="234" y="72" class="st1" width="5" height="1"/>
		<rect x="255" y="60" class="st1" width="6" height="1"/>
		<rect x="255" y="84" class="st1" width="6" height="2"/>
		<rect x="244.7" y="66" transform="matrix(0.5 -0.866 0.866 0.5 65.9902 247.5569)" class="st1" width="5.3" height="1.3"/>
		<rect x="223.4" y="66" transform="matrix(0.5 0.866 -0.866 0.5 170.75 -162.4455)" class="st1" width="5.3" height="1.3"/>
		<circle class="st1" cx="222.5" cy="85.1" r="3.1"/>
		<rect x="223.4" y="78.3" transform="matrix(-0.5 0.866 -0.866 -0.5 407.4717 -77.3226)" class="st1" width="5.3" height="1.3"/>
		<circle class="st1" cx="250.9" cy="85.1" r="3.1"/>
		<rect x="244.7" y="78.3" transform="matrix(-0.5 -0.866 0.866 -0.5 302.7111 332.6581)" class="st1" width="5.3" height="1.3"/>
		<circle class="st1" cx="286.5" cy="48.1" r="3.1"/>
		<circle class="st1" cx="272.3" cy="48.1" r="3.1"/>
		<rect x="277" y="47" class="st1" width="5" height="2"/>
		<circle class="st1" cx="265.2" cy="60.5" r="3.1"/>
		<rect x="266.1" y="53.6" transform="matrix(-0.5 0.866 -0.866 -0.5 450.1506 -151.276)" class="st1" width="5.3" height="1.3"/>
		<circle class="st1" cx="293.6" cy="60.5" r="3.1"/>
		<rect x="287.4" y="53.6" transform="matrix(-0.5 -0.866 0.866 -0.5 388.0961 332.6424)" class="st1" width="5.3" height="1.3"/>
		<circle class="st1" cx="272.3" cy="72.8" r="3.1"/>
		<circle class="st1" cx="286.5" cy="72.8" r="3.1"/>
		<rect x="277" y="72" class="st1" width="5" height="1"/>
		<rect x="298" y="60" class="st1" width="5" height="1"/>
		<rect x="287.4" y="66" transform="matrix(0.5 -0.866 0.866 0.5 87.3342 284.5258)" class="st1" width="5.3" height="1.3"/>
		<rect x="266.1" y="66" transform="matrix(0.5 0.866 -0.866 0.5 192.094 -199.4144)" class="st1" width="5.3" height="1.3"/>
		<circle class="st1" cx="265.2" cy="85.1" r="3.1"/>
		<rect x="266.1" y="78.3" transform="matrix(-0.5 0.866 -0.866 -0.5 471.5036 -114.2915)" class="st1" width="5.3" height="1.3"/>
		<circle class="st1" cx="307.9" cy="60.5" r="3.1"/>
		<circle class="st1" cx="30.4" cy="97.4" r="3.1"/>
		<circle class="st1" cx="16.2" cy="97.4" r="3.1"/>
		<rect x="21" y="97" class="st1" width="5" height="1"/>
		<circle class="st1" cx="9.1" cy="109.8" r="3.1"/>
		<rect x="9.9" y="102.9" transform="matrix(-0.5 0.866 -0.866 -0.5 108.6593 144.4965)" class="st1" width="5.3" height="1.3"/>
		<circle class="st1" cx="37.5" cy="109.8" r="3.1"/>
		<rect x="31.3" y="102.9" transform="matrix(-0.5 -0.866 0.866 -0.5 -38.7961 184.7886)" class="st1" width="5.3" height="1.3"/>
		<rect x="42" y="109" class="st1" width="5" height="1"/>
		<rect x="42" y="134" class="st1" width="5" height="1"/>
		<circle class="st1" cx="9.1" cy="134.4" r="3.1"/>
		<circle class="st1" cx="37.5" cy="134.4" r="3.1"/>
		<rect x="9.9" y="139.9" transform="matrix(0.5 0.866 -0.866 0.5 128.0836 59.3801)" class="st1" width="5.3" height="1.3"/>
		<circle class="st1" cx="73.1" cy="97.4" r="3.1"/>
		<circle class="st1" cx="51.8" cy="109.8" r="3.1"/>
		<circle class="st1" cx="51.8" cy="134.4" r="3.1"/>
		<rect x="52.6" y="139.9" transform="matrix(0.5 0.866 -0.866 0.5 149.4276 22.4113)" class="st1" width="5.3" height="1.3"/>
		<circle class="st1" cx="101.6" cy="97.4" r="3.1"/>
		<circle class="st1" cx="94.4" cy="109.8" r="3.1"/>
		<rect x="95.3" y="102.9" transform="matrix(-0.5 0.866 -0.866 -0.5 236.7232 70.5588)" class="st1" width="5.3" height="1.3"/>
		<circle class="st1" cx="101.5" cy="122.1" r="3.1"/>
		<circle class="st1" cx="115.8" cy="122.1" r="3.1"/>
		<rect x="106" y="121" class="st1" width="5" height="2"/>
		<rect x="95.3" y="115.3" transform="matrix(0.5 0.866 -0.866 0.5 149.4185 -26.8858)" class="st1" width="5.3" height="1.3"/>
		<circle class="st1" cx="94.4" cy="134.4" r="3.1"/>
		<rect x="95.3" y="127.6" transform="matrix(-0.5 0.866 -0.866 -0.5 258.0763 107.5434)" class="st1" width="5.3" height="1.3"/>
		<circle class="st1" cx="122.9" cy="134.4" r="3.1"/>
		<rect x="116.6" y="127.6" transform="matrix(-0.5 -0.866 0.866 -0.5 67.9148 295.7109)" class="st1" width="5.3" height="1.3"/>
		<rect x="95.3" y="139.9" transform="matrix(0.5 0.866 -0.866 0.5 170.7715 -14.5576)" class="st1" width="5.3" height="1.3"/>
		<circle class="st1" cx="158.5" cy="97.4" r="3.1"/>
		<circle class="st1" cx="144.2" cy="97.4" r="3.1"/>
		<rect x="149" y="97" class="st1" width="5" height="1"/>
		<circle class="st1" cx="137.1" cy="109.8" r="3.1"/>
		<rect x="138" y="102.9" transform="matrix(-0.5 0.866 -0.866 -0.5 300.7552 33.5899)" class="st1" width="5.3" height="1.3"/>
		<circle class="st1" cx="144.2" cy="122.1" r="3.1"/>
		<circle class="st1" cx="158.4" cy="122.1" r="3.1"/>
		<rect x="149" y="121" class="st1" width="5" height="2"/>
		<rect x="138" y="115.3" transform="matrix(0.5 0.866 -0.866 0.5 170.7625 -63.8547)" class="st1" width="5.3" height="1.3"/>
		<circle class="st1" cx="329.2" cy="72.8" r="3.1"/>
		<circle class="st1" cx="315" cy="72.8" r="3.1"/>
		<rect x="319" y="72" class="st1" width="6" height="1"/>
		<circle class="st1" cx="307.9" cy="85.1" r="3.1"/>
		<rect x="308.8" y="78.3" transform="matrix(-0.5 0.866 -0.866 -0.5 535.5417 -151.2497)" class="st1" width="5.3" height="1.3"/>
		<circle class="st1" cx="329.2" cy="122.1" r="3.1"/>
		<rect x="330.1" y="103" transform="matrix(0.5 0.866 -0.866 0.5 256.1508 -236.3525)" class="st1" width="5.3" height="1.3"/>
		<circle class="st1" cx="329.2" cy="97.4" r="3.1"/>
		<circle class="st1" cx="329.2" cy="122.1" r="3.1"/>
		<rect x="330.1" y="115.3" transform="matrix(-0.5 0.866 -0.866 -0.5 599.5726 -114.2336)" class="st1" width="5.3" height="1.3"/>
		<circle class="st1" cx="315" cy="97.5" r="3.1"/>
		<rect x="319" y="97" class="st1" width="6" height="1"/>
		<rect x="308.8" y="90.6" transform="matrix(0.5 0.866 -0.866 0.5 234.7971 -224.0515)" class="st1" width="5.3" height="1.3"/>
		<circle class="st1" cx="307.9" cy="109.8" r="3.1"/>
		<rect x="308.8" y="103" transform="matrix(-0.5 0.866 -0.866 -0.5 556.8948 -114.2651)" class="st1" width="5.3" height="1.3"/>
		<circle class="st1" cx="30.4" cy="146.8" r="3.1"/>
		<circle class="st1" cx="16.2" cy="146.8" r="3.1"/>
		<rect x="21" y="146" class="st1" width="5" height="1"/>
		<circle class="st1" cx="9.1" cy="159.1" r="3.1"/>
		<rect x="9.9" y="152.3" transform="matrix(-0.5 0.866 -0.866 -0.5 151.3598 218.4559)" class="st1" width="5.3" height="1.3"/>
		<circle class="st1" cx="37.5" cy="159.1" r="3.1"/>
		<rect x="31.3" y="152.2" transform="matrix(-0.5 -0.866 0.866 -0.5 -81.4965 258.748)" class="st1" width="5.3" height="1.3"/>
		<rect x="42" y="158" class="st1" width="5" height="2"/>
		<rect x="42" y="183" class="st1" width="5" height="1"/>
		<circle class="st1" cx="9.1" cy="183.7" r="3.1"/>
		<circle class="st1" cx="37.5" cy="183.7" r="3.1"/>
		<rect x="31.3" y="189.2" transform="matrix(0.5 -0.866 0.866 0.5 -147.4837 124.347)" class="st1" width="5.3" height="1.3"/>
		<rect x="9.9" y="189.3" transform="matrix(0.5 0.866 -0.866 0.5 170.784 84.0332)" class="st1" width="5.3" height="1.3"/>
		<circle class="st1" cx="73.1" cy="146.8" r="3.1"/>
		<circle class="st1" cx="58.9" cy="146.8" r="3.1"/>
		<circle class="st1" cx="51.8" cy="159.1" r="3.1"/>
		<rect x="52.6" y="152.3" transform="matrix(-0.5 0.866 -0.866 -0.5 215.3917 181.4871)" class="st1" width="5.3" height="1.3"/>
		<circle class="st1" cx="80.2" cy="159.1" r="3.1"/>
		<rect x="74" y="152.2" transform="matrix(-0.5 -0.866 0.866 -0.5 -17.4646 295.7168)" class="st1" width="5.3" height="1.3"/>
		<circle class="st1" cx="58.9" cy="171.4" r="3.1"/>
		<rect x="85" y="158" class="st1" width="5" height="2"/>
		<rect x="52.6" y="164.6" transform="matrix(0.5 0.866 -0.866 0.5 170.775 34.7362)" class="st1" width="5.3" height="1.3"/>
		<rect x="159.3" y="103" transform="matrix(0.5 0.866 -0.866 0.5 170.7717 -88.4705)" class="st1" width="5.3" height="1.3"/>
		<circle class="st1" cx="165.6" cy="109.8" r="3.1"/>
		<rect x="159.3" y="115.3" transform="matrix(-0.5 0.866 -0.866 -0.5 343.4344 33.649)" class="st1" width="5.3" height="1.3"/>
		<circle class="st1" cx="165.6" cy="134.5" r="3.1"/>
		<rect x="159.3" y="127.6" transform="matrix(0.5 0.866 -0.866 0.5 192.1191 -76.1456)" class="st1" width="5.3" height="1.3"/>
		<circle class="st1" cx="51.8" cy="183.7" r="3.1"/>
		<circle class="st1" cx="80.2" cy="183.7" r="3.1"/>
		<rect x="74" y="189.2" transform="matrix(0.5 -0.866 0.866 0.5 -126.1397 161.3159)" class="st1" width="5.3" height="1.3"/>
		<rect x="52.6" y="189.3" transform="matrix(0.5 0.866 -0.866 0.5 192.128 47.0644)" class="st1" width="5.3" height="1.3"/>
		<circle class="st1" cx="101.6" cy="146.8" r="3.1"/>
		<circle class="st1" cx="94.4" cy="159.1" r="3.1"/>
		<rect x="95.3" y="152.3" transform="matrix(-0.5 0.866 -0.866 -0.5 279.4237 144.5182)" class="st1" width="5.3" height="1.3"/>
		<circle class="st1" cx="101.5" cy="171.4" r="3.1"/>
		<circle class="st1" cx="115.8" cy="171.4" r="3.1"/>
		<rect x="106" y="171" class="st1" width="5" height="1"/>
		<rect x="319" y="269" class="st1" width="6" height="2"/>
		<rect x="95.3" y="164.6" transform="matrix(0.5 0.866 -0.866 0.5 192.119 -2.2327)" class="st1" width="5.3" height="1.3"/>
		<circle class="st1" cx="315" cy="270" r="3.1"/>
		<rect x="308.8" y="275.6" transform="matrix(0.5 -0.866 0.866 0.5 -83.4992 407.8201)" class="st1" width="5.3" height="1.3"/>
		<circle class="st1" cx="158.5" cy="146.8" r="3.1"/>
		<circle class="st1" cx="144.2" cy="146.8" r="3.1"/>
		<rect x="149" y="146" class="st1" width="5" height="1"/>
		<circle class="st1" cx="137.1" cy="159.1" r="3.1"/>
		<rect x="138" y="152.3" transform="matrix(-0.5 0.866 -0.866 -0.5 343.4557 107.5493)" class="st1" width="5.3" height="1.3"/>
		<circle class="st1" cx="144.2" cy="171.4" r="3.1"/>
		<circle class="st1" cx="158.4" cy="171.4" r="3.1"/>
		<rect x="149" y="171" class="st1" width="5" height="1"/>
		<rect x="138" y="164.6" transform="matrix(0.5 0.866 -0.866 0.5 213.4629 -39.2015)" class="st1" width="5.3" height="1.3"/>
		<circle class="st1" cx="329.2" cy="270" r="3.1"/>
		<circle class="st1" cx="30.4" cy="196.1" r="3.1"/>
		<circle class="st1" cx="16.2" cy="196.1" r="3.1"/>
		<rect x="21" y="195" class="st1" width="5" height="2"/>
		<circle class="st1" cx="37.5" cy="208.4" r="3.1"/>
		<rect x="31.3" y="201.5" transform="matrix(-0.5 -0.866 0.866 -0.5 -124.197 332.7073)" class="st1" width="5.3" height="1.3"/>
		<rect x="42" y="208" class="st1" width="5" height="1"/>
		<circle class="st1" cx="73.1" cy="196.1" r="3.1"/>
		<circle class="st1" cx="58.9" cy="196.1" r="3.1"/>
		<rect x="63" y="195" class="st1" width="6" height="2"/>
		<circle class="st1" cx="51.8" cy="208.4" r="3.1"/>
		<rect x="52.6" y="201.6" transform="matrix(-0.5 0.866 -0.866 -0.5 258.0922 255.4464)" class="st1" width="5.3" height="1.3"/>
		<circle class="st1" cx="58.9" cy="220.7" r="3.1"/>
		<circle class="st1" cx="73.1" cy="220.7" r="3.1"/>
		<rect x="63" y="220" class="st1" width="6" height="1"/>
		<rect x="52.6" y="213.9" transform="matrix(0.5 0.866 -0.866 0.5 213.4754 59.3893)" class="st1" width="5.3" height="1.3"/>
		<circle class="st1" cx="51.8" cy="233" r="3.1"/>
		<rect x="52.6" y="226.2" transform="matrix(-0.5 0.866 -0.866 -0.5 279.4453 292.431)" class="st1" width="5.3" height="1.3"/>
		<rect x="52.6" y="238.6" transform="matrix(0.5 0.866 -0.866 0.5 234.8285 71.7175)" class="st1" width="5.3" height="1.3"/>
		<circle class="st1" cx="307.9" cy="282.4" r="3.1"/>
		<circle class="st1" cx="94.4" cy="208.4" r="3.1"/>
		<circle class="st1" cx="315" cy="294.7" r="3.1"/>
		<rect x="308.8" y="287.9" transform="matrix(-0.5 -0.866 0.866 -0.5 217.2747 702.5047)" class="st1" width="5.3" height="1.3"/>
		<circle class="st1" cx="101.5" cy="220.7" r="3.1"/>
		<rect x="319" y="294" class="st1" width="6" height="1"/>
		<rect x="95.3" y="213.9" transform="matrix(0.5 0.866 -0.866 0.5 234.8194 22.4204)" class="st1" width="5.3" height="1.3"/>
		<circle class="st1" cx="122.9" cy="233" r="3.1"/>
		<rect x="116.6" y="238.5" transform="matrix(0.5 -0.866 0.866 0.5 -147.4962 222.9379)" class="st1" width="5.3" height="1.3"/>
		<circle class="st1" cx="158.5" cy="196.1" r="3.1"/>
		<circle class="st1" cx="329.2" cy="294.7" r="3.1"/>
		<circle class="st1" cx="165.6" cy="208.4" r="3.1"/>
		<rect x="159.3" y="201.5" transform="matrix(-0.5 -0.866 0.866 -0.5 67.8989 443.6139)" class="st1" width="5.3" height="1.3"/>
		<circle class="st1" cx="144.2" cy="220.7" r="3.1"/>
		<circle class="st1" cx="158.4" cy="220.7" r="3.1"/>
		<rect x="149" y="220" class="st1" width="5" height="1"/>
		<rect x="170" y="232" class="st1" width="5" height="2"/>
		<rect x="159.3" y="213.9" transform="matrix(0.5 -0.866 0.866 0.5 -104.7992 247.5786)" class="st1" width="5.3" height="1.3"/>
		<circle class="st1" cx="137.1" cy="233" r="3.1"/>
		<rect x="138" y="226.2" transform="matrix(-0.5 0.866 -0.866 -0.5 407.5092 218.4933)" class="st1" width="5.3" height="1.3"/>
		<circle class="st1" cx="165.6" cy="233" r="3.1"/>
		<rect x="159.3" y="226.2" transform="matrix(-0.5 -0.866 0.866 -0.5 46.5458 480.5985)" class="st1" width="5.3" height="1.3"/>
		<rect x="159.3" y="238.5" transform="matrix(0.5 -0.866 0.866 0.5 -126.1522 259.9068)" class="st1" width="5.3" height="1.3"/>
		<circle class="st1" cx="179.8" cy="208.4" r="3.1"/>
		<circle class="st1" cx="208.3" cy="208.4" r="3.1"/>
		<circle class="st1" cx="186.9" cy="220.7" r="3.1"/>
		<circle class="st1" cx="201.1" cy="220.7" r="3.1"/>
		<rect x="191" y="220" class="st1" width="6" height="1"/>
		<rect x="213" y="232" class="st1" width="5" height="2"/>
		<rect x="202" y="213.9" transform="matrix(0.5 -0.866 0.866 0.5 -83.4552 284.5475)" class="st1" width="5.3" height="1.3"/>
		<rect x="180.7" y="213.9" transform="matrix(0.5 0.866 -0.866 0.5 277.5074 -51.5173)" class="st1" width="5.3" height="1.3"/>
		<circle class="st1" cx="179.8" cy="233" r="3.1"/>
		<rect x="180.7" y="226.2" transform="matrix(-0.5 0.866 -0.866 -0.5 471.5411 181.5244)" class="st1" width="5.3" height="1.3"/>
		<circle class="st1" cx="208.3" cy="233" r="3.1"/>
		<rect x="202" y="226.2" transform="matrix(-0.5 -0.866 0.866 -0.5 110.5778 517.5674)" class="st1" width="5.3" height="1.3"/>
		<rect x="202" y="238.5" transform="matrix(0.5 -0.866 0.866 0.5 -104.8083 296.8756)" class="st1" width="5.3" height="1.3"/>
		<circle class="st1" cx="250.9" cy="208.4" r="3.1"/>
		<circle class="st1" cx="229.6" cy="220.7" r="3.1"/>
		<circle class="st1" cx="243.8" cy="220.7" r="3.1"/>
		<rect x="234" y="220" class="st1" width="5" height="1"/>
		<rect x="255" y="208" class="st1" width="6" height="1"/>
		<rect x="255" y="232" class="st1" width="6" height="2"/>
		<rect x="244.7" y="213.9" transform="matrix(0.5 -0.866 0.866 0.5 -62.1112 321.5163)" class="st1" width="5.3" height="1.3"/>
		<circle class="st1" cx="222.5" cy="233" r="3.1"/>
		<rect x="223.4" y="226.2" transform="matrix(-0.5 0.866 -0.866 -0.5 535.5731 144.5555)" class="st1" width="5.3" height="1.3"/>
		<circle class="st1" cx="250.9" cy="233" r="3.1"/>
		<rect x="244.7" y="226.2" transform="matrix(-0.5 -0.866 0.866 -0.5 174.6097 554.5363)" class="st1" width="5.3" height="1.3"/>
		<rect x="244.7" y="238.5" transform="matrix(0.5 -0.866 0.866 0.5 -83.4643 333.8445)" class="st1" width="5.3" height="1.3"/>
		<circle class="st1" cx="265.2" cy="208.4" r="3.1"/>
		<circle class="st1" cx="272.3" cy="220.7" r="3.1"/>
		<circle class="st1" cx="286.5" cy="220.7" r="3.1"/>
		<rect x="277" y="220" class="st1" width="5" height="1"/>
		<rect x="266.1" y="213.9" transform="matrix(0.5 0.866 -0.866 0.5 320.1954 -125.455)" class="st1" width="5.3" height="1.3"/>
		<circle class="st1" cx="265.2" cy="233" r="3.1"/>
		<circle class="st1" cx="293.6" cy="233" r="3.1"/>
		<rect x="287.4" y="226.2" transform="matrix(-0.5 -0.866 0.866 -0.5 238.6417 591.5051)" class="st1" width="5.3" height="1.3"/>
		<rect x="287.4" y="238.5" transform="matrix(0.5 -0.866 0.866 0.5 -62.1203 370.8134)" class="st1" width="5.3" height="1.3"/>
		<rect x="266.1" y="238.6" transform="matrix(0.5 0.866 -0.866 0.5 341.5484 -113.1268)" class="st1" width="5.3" height="1.3"/>
		<circle class="st1" cx="307.9" cy="233" r="3.1"/>
		<circle class="st1" cx="30.4" cy="245.4" r="3.1"/>
		<circle class="st1" cx="37.5" cy="257.7" r="3.1"/>
		<rect x="31.3" y="250.8" transform="matrix(-0.5 -0.866 0.866 -0.5 -166.8975 406.6667)" class="st1" width="5.3" height="1.3"/>
		<rect x="42" y="257" class="st1" width="5" height="1"/>
		<rect x="42" y="282" class="st1" width="5" height="1"/>
		<circle class="st1" cx="37.5" cy="282.3" r="3.1"/>
		<circle class="st1" cx="73.1" cy="245.4" r="3.1"/>
		<circle class="st1" cx="58.9" cy="245.4" r="3.1"/>
		<rect x="63" y="245" class="st1" width="6" height="1"/>
		<circle class="st1" cx="51.8" cy="257.7" r="3.1"/>
		<rect x="52.6" y="250.9" transform="matrix(-0.5 0.866 -0.866 -0.5 300.7927 329.4058)" class="st1" width="5.3" height="1.3"/>
		<circle class="st1" cx="73.1" cy="270" r="3.1"/>
		<circle class="st1" cx="51.8" cy="282.3" r="3.1"/>
		<circle class="st1" cx="80.2" cy="282.3" r="3.1"/>
		<rect x="74" y="275.5" transform="matrix(-0.5 -0.866 0.866 -0.5 -124.2186 480.6201)" class="st1" width="5.3" height="1.3"/>
		<rect x="74" y="287.8" transform="matrix(0.5 -0.866 0.866 0.5 -211.5407 210.6222)" class="st1" width="5.3" height="1.3"/>
		<circle class="st1" cx="115.8" cy="245.4" r="3.1"/>
		<circle class="st1" cx="94.4" cy="257.7" r="3.1"/>
		<circle class="st1" cx="122.9" cy="257.7" r="3.1"/>
		<circle class="st1" cx="101.5" cy="270" r="3.1"/>
		<circle class="st1" cx="115.8" cy="270" r="3.1"/>
		<rect x="106" y="269" class="st1" width="5" height="2"/>
		<rect x="127" y="257" class="st1" width="6" height="1"/>
		<rect x="116.6" y="263.2" transform="matrix(0.5 -0.866 0.866 0.5 -168.8436 235.2628)" class="st1" width="5.3" height="1.3"/>
		<rect x="95.3" y="263.2" transform="matrix(0.5 0.866 -0.866 0.5 277.5199 47.0736)" class="st1" width="5.3" height="1.3"/>
		<circle class="st1" cx="122.9" cy="282.3" r="3.1"/>
		<rect x="116.6" y="275.5" transform="matrix(-0.5 -0.866 0.866 -0.5 -60.1866 517.589)" class="st1" width="5.3" height="1.3"/>
		<circle class="st1" cx="158.5" cy="245.4" r="3.1"/>
		<circle class="st1" cx="137.1" cy="257.7" r="3.1"/>
		<circle class="st1" cx="165.6" cy="257.7" r="3.1"/>
		<rect x="159.3" y="250.8" transform="matrix(-0.5 -0.866 0.866 -0.5 25.1984 517.5733)" class="st1" width="5.3" height="1.3"/>
		<circle class="st1" cx="158.4" cy="270" r="3.1"/>
		<rect x="159.3" y="263.2" transform="matrix(0.5 -0.866 0.866 0.5 -147.4997 272.2317)" class="st1" width="5.3" height="1.3"/>
		<circle class="st1" cx="165.6" cy="282.3" r="3.1"/>
		<rect x="159.3" y="275.5" transform="matrix(-0.5 -0.866 0.866 -0.5 3.8453 554.5579)" class="st1" width="5.3" height="1.3"/>
		<circle class="st1" cx="201.1" cy="245.4" r="3.1"/>
		<circle class="st1" cx="208.3" cy="257.7" r="3.1"/>
		<rect x="202" y="250.8" transform="matrix(-0.5 -0.866 0.866 -0.5 89.2303 554.5422)" class="st1" width="5.3" height="1.3"/>
		<circle class="st1" cx="201.1" cy="270" r="3.1"/>
		<rect x="213" y="257" class="st1" width="5" height="1"/>
		<rect x="202" y="263.2" transform="matrix(0.5 -0.866 0.866 0.5 -126.1557 309.2006)" class="st1" width="5.3" height="1.3"/>
		<circle class="st1" cx="208.3" cy="282.3" r="3.1"/>
		<rect x="202" y="287.8" transform="matrix(0.5 -0.866 0.866 0.5 -147.5087 321.5287)" class="st1" width="5.3" height="1.3"/>
		<circle class="st1" cx="243.8" cy="245.4" r="3.1"/>
		<circle class="st1" cx="229.6" cy="245.4" r="3.1"/>
		<rect x="234" y="245" class="st1" width="5" height="1"/>
		<circle class="st1" cx="222.5" cy="257.7" r="3.1"/>
		<rect x="223.4" y="250.9" transform="matrix(-0.5 0.866 -0.866 -0.5 556.9205 181.5303)" class="st1" width="5.3" height="1.3"/>
		<circle class="st1" cx="250.9" cy="257.7" r="3.1"/>
		<rect x="244.7" y="250.8" transform="matrix(-0.5 -0.866 0.866 -0.5 153.2623 591.511)" class="st1" width="5.3" height="1.3"/>
		<circle class="st1" cx="229.6" cy="270" r="3.1"/>
		<circle class="st1" cx="243.8" cy="270" r="3.1"/>
		<rect x="234" y="269" class="st1" width="5" height="2"/>
		<rect x="255" y="282" class="st1" width="6" height="1"/>
		<rect x="244.7" y="263.2" transform="matrix(0.5 -0.866 0.866 0.5 -104.8117 346.1694)" class="st1" width="5.3" height="1.3"/>
		<rect x="223.4" y="263.2" transform="matrix(0.5 0.866 -0.866 0.5 341.5518 -63.833)" class="st1" width="5.3" height="1.3"/>
		<circle class="st1" cx="250.9" cy="282.3" r="3.1"/>
		<rect x="244.7" y="275.5" transform="matrix(-0.5 -0.866 0.866 -0.5 131.9093 628.4956)" class="st1" width="5.3" height="1.3"/>
		<circle class="st1" cx="286.5" cy="245.4" r="3.1"/>
		<circle class="st1" cx="272.3" cy="245.4" r="3.1"/>
		<circle class="st1" cx="265.2" cy="257.7" r="3.1"/>
		<rect x="266.1" y="250.9" transform="matrix(-0.5 0.866 -0.866 -0.5 620.9525 144.5615)" class="st1" width="5.3" height="1.3"/>
		<rect x="319" y="121" class="st1" width="6" height="2"/>
		<circle class="st1" cx="315" cy="122.1" r="3.1"/>
		<rect x="308.8" y="127.6" transform="matrix(0.5 -0.866 0.866 0.5 44.6186 333.8657)" class="st1" width="5.3" height="1.3"/>
		<rect x="330.1" y="164.6" transform="matrix(0.5 -0.866 0.866 0.5 23.2509 370.841)" class="st1" width="5.3" height="1.3"/>
		<circle class="st1" cx="307.9" cy="134.5" r="3.1"/>
		<circle class="st1" cx="329.2" cy="171.4" r="3.1"/>
		<circle class="st1" cx="315" cy="171.4" r="3.1"/>
		<rect x="319" y="171" class="st1" width="6" height="1"/>
		<circle class="st1" cx="307.9" cy="183.8" r="3.1"/>
		<rect x="308.8" y="176.9" transform="matrix(-0.5 0.866 -0.866 -0.5 621.0004 -3.3057)" class="st1" width="5.3" height="1.3"/>
		<rect x="330.1" y="176.9" transform="matrix(-0.5 -0.866 0.866 -0.5 345.375 554.5878)" class="st1" width="5.3" height="1.3"/>
		<circle class="st1" cx="315" cy="196.1" r="3.1"/>
		<circle class="st1" cx="329.2" cy="196.1" r="3.1"/>
		<rect x="319" y="195" class="st1" width="6" height="2"/>
		<rect x="330.1" y="189.3" transform="matrix(0.5 -0.866 0.866 0.5 1.9035 383.166)" class="st1" width="5.3" height="1.3"/>
		<rect x="308.8" y="189.3" transform="matrix(0.5 0.866 -0.866 0.5 320.2342 -174.7493)" class="st1" width="5.3" height="1.3"/>
		<circle class="st1" cx="293.6" cy="257.7" r="3.1"/>
		<rect x="287.4" y="250.8" transform="matrix(-0.5 -0.866 0.866 -0.5 217.2943 628.4799)" class="st1" width="5.3" height="1.3"/>
		<circle class="st1" cx="286.5" cy="270" r="3.1"/>
		<rect x="298" y="257" class="st1" width="5" height="1"/>
		<rect x="287.4" y="263.2" transform="matrix(0.5 -0.866 0.866 0.5 -83.4677 383.1383)" class="st1" width="5.3" height="1.3"/>
		<circle class="st1" cx="265.2" cy="282.3" r="3.1"/>
		<circle class="st1" cx="293.6" cy="282.3" r="3.1"/>
		<rect x="287.4" y="275.5" transform="matrix(-0.5 -0.866 0.866 -0.5 195.9412 665.4645)" class="st1" width="5.3" height="1.3"/>
		<rect x="287.4" y="287.8" transform="matrix(0.5 -0.866 0.866 0.5 -104.8208 395.4665)" class="st1" width="5.3" height="1.3"/>
		<circle class="st1" cx="307.9" cy="257.7" r="3.1"/>
		<circle class="st1" cx="9.1" cy="307" r="3.1"/>
		<circle class="st1" cx="16.2" cy="319.3" r="3.1"/>
		<rect x="9.9" y="312.5" transform="matrix(0.5 0.866 -0.866 0.5 277.5324 145.6644)" class="st1" width="5.3" height="1.3"/>
		<circle class="st1" cx="73.1" cy="294.7" r="3.1"/>
		<circle class="st1" cx="51.8" cy="307" r="3.1"/>
		<circle class="st1" cx="80.2" cy="307" r="3.1"/>
		<rect x="74" y="300.2" transform="matrix(-0.5 -0.866 0.866 -0.5 -145.566 517.595)" class="st1" width="5.3" height="1.3"/>
		<circle class="st1" cx="58.9" cy="319.3" r="3.1"/>
		<rect x="85" y="306" class="st1" width="5" height="2"/>
		<rect x="52.6" y="312.5" transform="matrix(0.5 0.866 -0.866 0.5 298.8764 108.6956)" class="st1" width="5.3" height="1.3"/>
		<circle class="st1" cx="94.4" cy="307" r="3.1"/>
		<circle class="st1" cx="122.9" cy="307" r="3.1"/>
		<circle class="st1" cx="101.5" cy="319.3" r="3.1"/>
		<circle class="st1" cx="115.8" cy="319.3" r="3.1"/>
		<rect x="106" y="318" class="st1" width="5" height="2"/>
		<rect x="127" y="306" class="st1" width="6" height="2"/>
		<circle class="st1" cx="144.2" cy="294.7" r="3.1"/>
		<circle class="st1" cx="137.1" cy="307" r="3.1"/>
		<rect x="138" y="300.2" transform="matrix(-0.5 0.866 -0.866 -0.5 471.557 329.4275)" class="st1" width="5.3" height="1.3"/>
		<circle class="st1" cx="165.6" cy="307" r="3.1"/>
		<circle class="st1" cx="158.4" cy="319.3" r="3.1"/>
		<rect x="159.3" y="312.5" transform="matrix(0.5 -0.866 0.866 0.5 -190.2001 296.8848)" class="st1" width="5.3" height="1.3"/>
		<circle class="st1" cx="201.1" cy="294.7" r="3.1"/>
		<circle class="st1" cx="186.9" cy="294.7" r="3.1"/>
		<rect x="191" y="294" class="st1" width="6" height="1"/>
		<circle class="st1" cx="208.3" cy="307" r="3.1"/>
		<rect x="202" y="300.2" transform="matrix(-0.5 -0.866 0.866 -0.5 46.5299 628.5016)" class="st1" width="5.3" height="1.3"/>
		<rect x="213" y="306" class="st1" width="5" height="2"/>
		<circle class="st1" cx="222.5" cy="307" r="3.1"/>
		<circle class="st1" cx="250.9" cy="307" r="3.1"/>
		<circle class="st1" cx="243.8" cy="319.3" r="3.1"/>
		<rect x="255" y="306" class="st1" width="6" height="2"/>
		<rect x="244.7" y="312.5" transform="matrix(0.5 -0.866 0.866 0.5 -147.5122 370.8226)" class="st1" width="5.3" height="1.3"/>
		<circle class="st1" cx="286.5" cy="294.7" r="3.1"/>
		<circle class="st1" cx="265.2" cy="307" r="3.1"/>
		<circle class="st1" cx="293.6" cy="307" r="3.1"/>
		<rect x="287.4" y="300.2" transform="matrix(-0.5 -0.866 0.866 -0.5 174.5938 702.4393)" class="st1" width="5.3" height="1.3"/>
		<circle class="st1" cx="272.3" cy="319.3" r="3.1"/>
		<circle class="st1" cx="286.5" cy="319.3" r="3.1"/>
		<rect x="298" y="306" class="st1" width="5" height="2"/>
		<rect x="287.4" y="312.5" transform="matrix(0.5 -0.866 0.866 0.5 -126.1682 407.7914)" class="st1" width="5.3" height="1.3"/>
		<rect x="266.1" y="312.5" transform="matrix(0.5 0.866 -0.866 0.5 405.5963 -76.1488)" class="st1" width="5.3" height="1.3"/>
		<circle class="st1" cx="307.9" cy="307" r="3.1"/>
		<circle class="st1" cx="315" cy="196.1" r="3.1"/>
		<circle class="st1" cx="307.9" cy="208.4" r="3.1"/>
		<rect x="319" y="195" class="st1" width="6" height="2"/>
		<rect x="308.8" y="201.6" transform="matrix(0.5 -0.866 0.866 0.5 -19.4198 370.8383)" class="st1" width="5.3" height="1.3"/>
		<circle class="st1" cx="315" cy="220.7" r="3.1"/>
		<rect x="308.8" y="213.9" transform="matrix(-0.5 -0.866 0.866 -0.5 281.3609 591.5474)" class="st1" width="5.3" height="1.3"/>
		<rect x="308.8" y="226.2" transform="matrix(0.5 -0.866 0.866 0.5 -40.7729 383.1665)" class="st1" width="5.3" height="1.3"/>
		<circle class="st1" cx="329.3" cy="196.1" r="3.1"/>
		<circle class="st1" cx="315" cy="245.4" r="3.1"/>
		<rect x="308.8" y="238.5" transform="matrix(-0.5 -0.866 0.866 -0.5 260.0135 628.5222)" class="st1" width="5.3" height="1.3"/>
		<rect x="319" y="245" class="st1" width="6" height="1"/>
		<circle class="st1" cx="329.3" cy="245.4" r="3.1"/>
		<path class="st1" d="M198.7,188.5c-4.7,0-8.4-3.8-8.4-8.5c0-4.6,3.8-8.5,8.5-8.4c4.8,0.1,8.4,3.8,8.4,8.4
			C207.2,184.7,203.3,188.5,198.7,188.5z"/>
		<g>
			<path class="st1" d="M266.9,119.9c0.1,4.3-3.6,8.4-8.5,8.4c-4.6,0-8.4-3.8-8.4-8.5c0.1-4.9,4-8.5,8.6-8.4
				C263.3,111.5,267.1,115.5,266.9,119.9z"/>
			<path class="st1" d="M291.5,96.5c0.1,4.5-3.8,8.6-8.7,8.4c-4.6-0.2-8.2-3.7-8.2-8.5c0-4.9,4-8.6,8.8-8.4
				C287.9,88.2,291.6,92,291.5,96.5z"/>
			<path class="st1" d="M293.6,163.2c-4.7,0-8.3-3.7-8.4-8.4c-0.1-4.5,3.7-8.5,8.4-8.5c4.7,0,8.4,3.7,8.4,8.5
				C302.1,159.6,298.3,163.3,293.6,163.2z"/>
			<path class="st1" d="M267.1,154.8c0.2,4.5-3.9,8.7-8.9,8.4c-4.3-0.3-8-3.7-8-8.5c0-4.8,3.8-8.4,8.6-8.4
				C263.4,146.4,267.1,150.2,267.1,154.8z"/>
			<path class="st1" d="M223.8,111.3c4.7,0,8.4,3.7,8.4,8.5c0,4.6-3.8,8.4-8.5,8.3c-4.6,0-8.3-3.8-8.3-8.4
				C215.3,114.9,219.4,111.1,223.8,111.3z"/>
			<path class="st1" d="M223.7,163.2c-4.7,0-8.4-3.8-8.4-8.5c0-4.6,3.8-8.5,8.5-8.4c4.8,0.1,8.4,3.8,8.4,8.4
				C232.2,159.4,228.3,163.3,223.7,163.2z"/>
			<path class="st1" d="M267.4,114.2c-0.6-0.6-1.1-1.2-1.6-1.7c-0.3-0.3-0.2-0.4,0-0.7c2.6-2.6,5.2-5.2,7.9-7.9
				c0.3-0.3,0.4-0.2,0.7,0c1.8,1.6,1.8,1.6,0.1,3.3C272.1,109.5,269.8,111.8,267.4,114.2z"/>
			<path class="st1" d="M257,137.3c0-1.8,0-3.5,0-5.3c0-0.6,0.2-0.7,0.7-0.7c2.1,0,2.1,0,2.1,2.1c0,3.1,0,6.1,0,9.2
				c0,0.6-0.2,0.8-0.8,0.8c-2.1,0-2.1,0-2.1-2.1C257,140,257,138.6,257,137.3z"/>
			<path class="st1" d="M241.1,156c-1.8,0-3.6,0.1-5.3,0.1c-0.5,0-0.7-0.1-0.6-0.6c0.1-0.7-0.3-1.6,0.2-2c0.4-0.4,1.3-0.1,2-0.1
				c3,0,6.1,0,9.1,0c0.6,0,0.8,0.1,0.8,0.7c0,2.1,0,2-2.1,2C243.8,156,242.4,156,241.1,156z"/>
			<path class="st1" d="M222,137.1c0-1.8,0.2-3.6,0.2-5.3c0-0.5,0.2-0.6,0.7-0.6c2.2,0,2.2-0.1,2.2,2.1c0,3,0,6.1,0,9.1
				c0,0.6-0.4,0.8-0.9,0.8c-2,0-2.2,0-2.2-2C222,139.8,222,138.4,222,137.1z"/>
			<path class="st1" d="M276.2,153c1.8,0,3.5,0.2,5.3,0.2c0.5,0,0.7,0.2,0.7,0.8c0,2.2,0,2.2-2.1,2.2c-3,0-6.1,0-9.1,0
				c-0.6,0-0.8-0.3-0.8-0.9c0-2.1,0-2.3,2.1-2.3C273.5,153,274.9,153,276.2,153z"/>
			<path class="st1" d="M207.6,172.8c-0.2-0.2-0.5-0.6-0.8-0.9c-1-1-1-1,0-2c2.3-2.3,4.7-4.7,7-7c0.4-0.4,0.6-0.5,1,0
				c0.4,0.5,1.3,0.9,1.3,1.5c0,0.5-0.8,1-1.3,1.4c-2.1,2.2-4.3,4.3-6.5,6.5C208.2,172.5,208,172.8,207.6,172.8z"/>
		</g>
	</g>
</g>
</svg>
